<svg width="46" height="64" viewBox="0 0 46 64" fill="none" xmlns="http://www.w3.org/2000/svg">
<path d="M5.55294 61.5734C5.47675 61.403 5.41484 61.2266 5.36787 61.0459L0.015625 60.0352C0.116733 62.2417 2.08894 64.0003 4.51658 64L8.13342 63.9992L8.09454 63.4733C7.5473 63.3901 7.02904 63.1732 6.58569 62.8418C6.14234 62.5104 5.78761 62.0747 5.55294 61.5734Z" fill="#F2994A"/>
<path d="M11.7237 58.9139L24.5942 57.5359C24.6237 57.5018 24.6577 57.4716 24.6898 57.4393L19.2407 44.7227C19.206 44.7407 19.177 44.7654 19.1414 44.7818C18.8372 44.9217 18.5102 45.0053 18.1761 45.0286L11.291 58.1154C11.4326 58.3023 11.5543 58.5034 11.6542 58.7155C11.6845 58.7806 11.6978 58.8483 11.7237 58.9139Z" fill="#F2994A"/>
<path d="M11.8631 60.9311C11.75 61.4087 11.5333 61.8555 11.2282 62.2399C10.9231 62.6244 10.5371 62.9369 10.0977 63.1555L10.1599 63.9991L20.4886 63.9973L23.9152 59.6406L11.8631 60.9311Z" fill="#F2994A"/>
<path d="M41.4148 16.9383L36.5136 16.9392L36.5115 4.3824C36.5115 1.96571 34.7409 -0.000443383 32.5655 7.50005e-08L12.5992 0.00340143C10.4236 0.00340143 8.65422 1.97043 8.65467 4.38713L8.65689 16.9439L4.50849 16.9447C2.0164 16.9447 -0.00103434 18.7974 3.97855e-07 21.0863L0.00295065 39.1232C0.488712 39.1794 0.956466 39.3405 1.37386 39.5952C1.79126 39.85 2.14833 40.1924 2.42039 40.5987L15.3583 41.2472C15.61 40.5849 16.105 40.0436 16.7422 39.7338C17.3794 39.424 18.1108 39.3691 18.7871 39.5801C19.4634 39.7912 20.0338 40.2524 20.3817 40.8696C20.7296 41.4868 20.8288 42.2135 20.6592 42.9015L26.6629 56.9125C26.9188 56.9822 27.1585 57.1019 27.368 57.2646C27.5776 57.4273 27.7529 57.6297 27.8839 57.8604C28.0149 58.0911 28.0991 58.3454 28.1315 58.6087C28.1639 58.872 28.1439 59.1391 28.0728 59.3946C28.0016 59.6502 27.8806 59.8891 27.7167 60.0978C27.5529 60.3064 27.3494 60.4806 27.118 60.6103C26.8866 60.74 26.6319 60.8227 26.3684 60.8537C26.1049 60.8846 25.8379 60.8631 25.5828 60.7905L23.061 63.9967L41.4234 63.9936C43.9155 63.9936 45.9329 62.1407 45.9319 59.852L45.9254 21.079C45.9249 18.7896 43.9069 16.9373 41.4148 16.9383ZM11.6662 4.38743C11.6662 3.57901 12.1583 3.01566 12.5998 3.01566L32.5659 3.01226C33.0075 3.01226 33.4998 3.57531 33.4998 4.38373L33.5021 16.9404H29.7375L29.7387 23.2118C29.7393 23.4074 29.6818 23.5988 29.5734 23.7617C29.4651 23.9246 29.3108 24.0516 29.1301 24.1266C28.9494 24.2017 28.7506 24.2214 28.5587 24.1832C28.3668 24.145 28.1906 24.0508 28.0524 23.9123L21.0795 16.9419L11.6684 16.9433L11.6662 4.38743Z" fill="#F2994A"/>
<path d="M15.4273 43.4359C15.4017 43.3815 15.3905 43.3246 15.3682 43.2693L2.9778 42.6484C2.93462 43.4584 2.59978 44.2253 2.03516 44.8076L7.84608 56.8621C8.43424 56.7286 9.04757 56.7564 9.62124 56.9426L16.2104 44.4184C15.8773 44.1554 15.6093 43.8192 15.4273 43.4359Z" fill="#F2994A"/>
<path d="M6.09893 57.8879L0.253568 45.7617C0.170493 45.7774 0.0871285 45.7848 0.00390625 45.7942L0.00597233 57.9738L5.43508 58.9992C5.58255 58.5894 5.80798 58.212 6.09893 57.8879Z" fill="#F2994A"/>
</svg>
