<svg width="48" height="45" viewBox="0 0 48 45" fill="none" xmlns="http://www.w3.org/2000/svg">
<path d="M41.9339 37.7854C42.0345 37.656 42.1351 37.5195 42.2285 37.383C42.3937 37.146 42.5446 36.9089 42.6955 36.6646C42.7673 36.5425 42.8535 36.4275 42.9182 36.3054C43.1337 35.939 43.3349 35.5654 43.5217 35.1775L45.993 30.0551C45.8063 30.443 45.6051 30.8166 45.3896 31.183C45.3177 31.3052 45.2387 31.4201 45.1668 31.5422C45.016 31.7865 44.8579 32.0236 44.6999 32.2607C44.6065 32.3972 44.5059 32.5265 44.4053 32.6558C44.2473 32.8641 44.0892 33.0725 43.924 33.2737C43.809 33.4102 43.6941 33.5395 43.5791 33.6688C43.4067 33.8628 43.2343 34.0495 43.0547 34.2291C42.9326 34.3585 42.8032 34.4806 42.6739 34.6027C42.4871 34.7823 42.2931 34.9548 42.0992 35.1272C41.9698 35.2421 41.8333 35.3571 41.6968 35.472C41.4885 35.6445 41.273 35.8097 41.0503 35.9749C40.9138 36.0755 40.7845 36.1761 40.6479 36.2695C40.3965 36.4491 40.1307 36.6143 39.872 36.7796C39.7571 36.8514 39.6493 36.9233 39.5416 36.9951C39.1608 37.225 38.7657 37.4405 38.3633 37.6489C38.2987 37.6848 38.2269 37.7135 38.155 37.7423C37.8174 37.9075 37.4725 38.0727 37.1205 38.2164C36.9696 38.2811 36.8187 38.3314 36.6679 38.3888C36.3877 38.4966 36.1075 38.6044 35.8201 38.705C35.6477 38.7624 35.4681 38.8199 35.2885 38.8702C35.0155 38.9564 34.7425 39.0354 34.4623 39.1144C34.2755 39.1647 34.0815 39.2078 33.8876 39.2581C33.6074 39.3228 33.3272 39.3875 33.0398 39.4449C32.8458 39.4809 32.6447 39.524 32.4435 39.5527C32.149 39.603 31.8544 39.6461 31.5599 39.682C31.3587 39.7107 31.1647 39.7323 30.9636 39.7538C30.6475 39.7826 30.3242 39.8041 30.0009 39.8257C29.8141 39.8401 29.6273 39.8544 29.4405 39.8616C29.0957 39.876 28.7364 39.876 28.3844 39.8688C28.2048 39.8688 28.0324 39.876 27.8528 39.8688C27.3211 39.8544 26.7823 39.8257 26.2363 39.7754C13.8076 38.669 3.18202 28.8841 2.5067 17.9209C2.32709 14.9681 2.88746 12.2238 4.04413 9.82422L1.57274 14.9466C0.40889 17.3533 -0.151482 20.0905 0.0353091 23.0504C0.71063 34.0136 11.3362 43.7986 23.7649 44.905C24.3109 44.9552 24.8498 44.984 25.3814 44.9984C25.561 45.0055 25.7334 44.9984 25.913 44.9984C26.2148 44.9984 26.5237 45.0055 26.8182 44.9984C26.8685 44.9984 26.9188 44.9912 26.9691 44.9912C27.1559 44.984 27.3427 44.9696 27.5295 44.9553C27.8528 44.9337 28.1761 44.9121 28.4922 44.8834C28.6933 44.8619 28.8873 44.8331 29.0885 44.8116C29.383 44.7757 29.6776 44.7325 29.9721 44.6823C30.1733 44.6463 30.3745 44.6104 30.5684 44.5745C30.8558 44.517 31.136 44.4595 31.409 44.3949C31.603 44.3518 31.7969 44.3015 31.9837 44.2512C32.2639 44.1794 32.5369 44.0931 32.8099 44.0069C32.9895 43.9495 33.1691 43.8992 33.3415 43.8345C33.6289 43.7339 33.9091 43.6262 34.1893 43.5184C34.3402 43.4609 34.491 43.4035 34.6419 43.3388C34.9939 43.1879 35.3388 43.0299 35.6764 42.8646C35.7411 42.8287 35.8129 42.8 35.8776 42.7712C36.2799 42.5701 36.6751 42.3474 37.0558 42.1175C37.1708 42.0528 37.2785 41.9738 37.3863 41.9019C37.6521 41.7367 37.9107 41.5643 38.1694 41.3847C38.3059 41.2913 38.4352 41.1835 38.5717 41.0829C38.7872 40.9177 39.0099 40.7525 39.2183 40.58C39.3548 40.4651 39.4841 40.3501 39.6206 40.2352C39.8146 40.0628 40.0085 39.8904 40.1953 39.7107C40.3247 39.5886 40.4468 39.4593 40.5761 39.3372C40.7557 39.1504 40.9281 38.9636 41.1006 38.7768C41.2155 38.6475 41.3304 38.511 41.4454 38.3817C41.6178 38.2092 41.7759 38.0009 41.9339 37.7854Z" fill="url(#paint0_linear_562_3852)"/>
<path d="M47.5445 21.9569C46.8692 11.0009 36.2437 1.20873 23.8077 0.102358C11.3789 -1.00402 1.84541 6.98488 2.51355 17.9481C3.18887 28.9112 13.8144 38.6962 26.2432 39.8026C38.6791 40.909 48.2198 32.9272 47.5445 21.9569Z" fill="url(#paint1_linear_562_3852)"/>
<path opacity="0.7" d="M47.5445 21.9569C46.8692 11.0009 36.2437 1.20873 23.8077 0.102358C11.3789 -1.00402 1.84541 6.98488 2.51355 17.9481C3.18887 28.9112 13.8144 38.6962 26.2432 39.8026C38.6791 40.909 48.2198 32.9272 47.5445 21.9569ZM43.0974 33.8899C39.5843 37.6258 34.4117 39.6876 28.5278 39.6876C27.7806 39.6876 27.019 39.6517 26.2647 39.5871C13.9581 38.4879 3.4044 28.7819 2.73626 17.9409C2.46326 13.4507 3.95758 9.21919 6.9606 6.02937C10.4737 2.29356 15.6464 0.231675 21.5231 0.231675C22.2703 0.231675 23.0318 0.267596 23.7861 0.332255C36.1 1.43145 46.6536 11.1374 47.3146 21.9784C47.602 26.4686 46.1005 30.7001 43.0974 33.8899Z" fill="url(#paint2_linear_562_3852)"/>
<path d="M31.9487 13.3633L22.5158 21.2732L17.5155 16.668L13.6504 19.901L22.954 28.4718L36.2521 17.329L31.9487 13.3633Z" fill="url(#paint3_linear_562_3852)"/>
<defs>
<linearGradient id="paint0_linear_562_3852" x1="-1.33049" y1="21.5543" x2="43.0429" y2="40.6903" gradientUnits="userSpaceOnUse">
<stop stop-color="#31FFAE"/>
<stop offset="0.0111" stop-color="#2BF3A6"/>
<stop offset="0.0394" stop-color="#1EDA96"/>
<stop offset="0.0652" stop-color="#17CB8C"/>
<stop offset="0.0863" stop-color="#14C689"/>
<stop offset="0.1365" stop-color="#0EB17F"/>
<stop offset="0.2073" stop-color="#089C74"/>
<stop offset="0.285" stop-color="#038C6D"/>
<stop offset="0.3743" stop-color="#018368"/>
<stop offset="0.5009" stop-color="#008067"/>
<stop offset="0.6373" stop-color="#018368"/>
<stop offset="0.7295" stop-color="#038C6D"/>
<stop offset="0.8085" stop-color="#089B74"/>
<stop offset="0.8798" stop-color="#0EB07E"/>
<stop offset="0.9337" stop-color="#14C689"/>
<stop offset="0.9497" stop-color="#17CC8B"/>
<stop offset="0.9706" stop-color="#21DC92"/>
<stop offset="0.9941" stop-color="#31F79C"/>
<stop offset="1" stop-color="#36FF9F"/>
</linearGradient>
<linearGradient id="paint1_linear_562_3852" x1="16.2203" y1="45.7285" x2="33.7626" y2="-5.57903" gradientUnits="userSpaceOnUse">
<stop offset="0.00023703" stop-color="#08BF8C"/>
<stop offset="0.4107" stop-color="#20E5A0"/>
<stop offset="0.6729" stop-color="#31FFAE"/>
<stop offset="0.9897" stop-color="#6EFFCD"/>
</linearGradient>
<linearGradient id="paint2_linear_562_3852" x1="29.2701" y1="-2.16004" x2="20.8287" y2="41.8934" gradientUnits="userSpaceOnUse">
<stop offset="0.0757" stop-color="#D9FFFF"/>
<stop offset="1" stop-color="#D9FFFF" stop-opacity="0"/>
</linearGradient>
<linearGradient id="paint3_linear_562_3852" x1="26.76" y1="9.6927" x2="18.7143" y2="49.3936" gradientUnits="userSpaceOnUse">
<stop stop-color="#CCFFFF"/>
<stop offset="1" stop-color="#A8E7FF"/>
</linearGradient>
</defs>
</svg>
