<svg width="195" height="175" viewBox="0 0 195 175" fill="none" xmlns="http://www.w3.org/2000/svg">
<path d="M148.337 79.3366L152.447 92.5905C150.616 86.7216 144.926 82.0304 135.788 79.9937C131.266 78.9608 126.298 78.7035 121.218 79.0664C105.985 80.1779 89.6097 87.0939 80.2267 97.3277C74.0388 104.095 72.0365 111.059 73.8226 116.866L69.7365 103.605C67.9574 97.8204 69.9368 90.8647 76.1478 84.0904C85.5308 73.8567 101.899 66.9168 117.131 65.8053C122.211 65.4424 127.163 65.7296 131.702 66.7326C140.824 68.8003 146.53 73.4606 148.337 79.3366Z" fill="#F2BC36"/>
<path d="M148.343 79.337L152.435 92.5864C154.225 98.3818 152.231 105.348 146.018 112.126L141.926 98.8762C148.138 92.099 150.133 85.1324 148.343 79.337Z" fill="#F9C73A"/>
<path d="M73.8369 116.863L69.7446 103.613C71.5572 109.482 77.2497 114.15 86.3714 116.201C104.515 120.281 129.436 112.506 141.929 98.8775L146.022 112.127C133.528 125.756 108.608 133.53 90.4638 129.45C81.3421 127.399 75.6495 122.731 73.8369 116.863Z" fill="#F9C73A"/>
<path d="M132.799 70.2677C150.943 74.3477 155.529 88.7572 143.023 102.4C130.529 116.029 105.609 123.803 87.4648 119.723C69.3384 115.647 64.7533 101.238 77.2466 87.6086C89.7524 73.9662 114.673 66.1917 132.799 70.2677Z" fill="#F9C73A"/>
<path d="M159.974 75.748L164.066 88.9974C166.384 96.5024 163.794 105.526 155.738 114.315C139.522 132.004 107.291 142.05 83.7631 136.76C71.9236 134.097 64.5411 128.058 62.1944 120.46L58.102 107.211C60.4487 114.809 67.8312 120.848 79.6707 123.51C103.198 128.801 135.43 118.755 151.646 101.065C159.702 92.2768 162.292 83.253 159.974 75.748Z" fill="#F2BC36"/>
<path d="M138.399 59.4401C161.927 64.7307 167.858 83.375 151.642 101.065C135.426 118.755 103.195 128.801 79.667 123.511C56.1394 118.22 50.2127 99.5932 66.4284 81.9035C82.6448 64.2131 114.871 54.1495 138.399 59.4401ZM86.3654 116.203C104.509 120.283 129.43 112.509 141.923 98.8799C154.429 85.2374 149.844 70.828 131.7 66.748C113.574 62.6719 88.653 70.4464 76.1472 84.0889C63.6539 97.7179 68.239 112.127 86.3654 116.203Z" fill="#FED44C"/>
<path d="M125.334 76.3714L126.178 79.1023L124.422 81.0179L123.578 78.287L125.334 76.3714Z" fill="#F2BC36"/>
<path d="M109.097 88.4808L108.253 85.7499C108.057 85.1146 108.341 84.3877 109.093 83.5677C109.866 82.7241 110.938 82.1189 112.296 81.7497C113.662 81.3708 115.139 81.3027 116.727 81.545L117.57 84.2759C115.982 84.0336 114.506 84.1017 113.139 84.4806C111.782 84.8498 110.71 85.455 109.936 86.2986C109.185 87.1187 108.901 87.8455 109.097 88.4808Z" fill="#F2BC36"/>
<path d="M119.828 82.3811L120.672 85.112L114.205 92.1663L113.362 89.4354L119.828 82.3811Z" fill="#F2BC36"/>
<path d="M124.975 86.1566L125.818 88.8876C124.702 87.2187 122.979 85.9621 120.672 85.1113L119.828 82.3804C122.136 83.2313 123.858 84.4878 124.975 86.1566Z" fill="#F2BC36"/>
<path d="M131.392 83.4359L132.236 86.1669L125.819 88.8863L124.975 86.1554L131.392 83.4359Z" fill="#F2BC36"/>
<path d="M101.39 90.4277L100.547 87.6968C100.593 87.8467 100.652 87.9934 100.724 88.1372C101.456 89.6282 103.4 91.1407 106.541 92.659L107.384 95.39C104.244 93.8716 102.299 92.3592 101.567 90.8681C101.496 90.7243 101.437 90.5776 101.39 90.4277Z" fill="#F2BC36"/>
<path d="M111.962 96.4751L112.806 99.2061C112.796 99.1741 112.785 99.1424 112.773 99.1109C112.511 98.4341 111.58 97.6415 109.996 96.748L109.152 94.0171C110.736 94.9106 111.668 95.7032 111.929 96.38C111.942 96.4115 111.953 96.4432 111.962 96.4751Z" fill="#F2BC36"/>
<path d="M109.153 94.0229L109.997 96.7538L103.8 103.514L102.956 100.783L109.153 94.0229Z" fill="#F2BC36"/>
<path d="M96.1039 104.042L96.9474 106.773C92.7042 105.396 89.8699 103.112 88.4196 99.916L87.5761 97.1851C89.0265 100.381 91.8607 102.665 96.1039 104.042Z" fill="#F2BC36"/>
<path d="M96.7966 107.503L97.6401 110.234L94.4372 109.514L93.5937 106.783L96.7966 107.503Z" fill="#F2BC36"/>
<path d="M99.2734 104.808L100.117 107.539L97.64 110.241L96.7965 107.51L99.2734 104.808Z" fill="#F2BC36"/>
<path d="M119.601 94.5512L120.445 97.2821C120.897 98.7452 120.206 100.47 118.383 102.46C116.366 104.659 113.698 106.21 110.383 107.122C107.054 108.032 103.631 108.165 100.118 107.535L99.2741 104.804C102.788 105.434 106.211 105.301 109.539 104.391C112.854 103.479 115.523 101.928 117.539 99.7287C119.363 97.7394 120.053 96.0142 119.601 94.5512Z" fill="#F2BC36"/>
<path d="M119.428 94.1097C120.18 95.6623 119.546 97.5323 117.538 99.7226C115.522 101.922 112.853 103.472 109.538 104.385C106.21 105.295 102.787 105.428 99.273 104.798L96.7961 107.5L93.5931 106.78L96.105 104.04C91.8617 102.663 89.0275 100.379 87.5772 97.1824L94.2198 94.7309C95.3421 97.19 97.2175 98.9271 99.8593 99.9443L106.543 92.6533C103.402 91.1349 101.458 89.6225 100.726 88.1314C99.9811 86.6376 100.606 84.8113 102.596 82.64C104.578 80.478 107.199 78.929 110.477 78.0082C113.763 77.0777 117.073 76.9185 120.414 77.521L122.135 75.6435L125.338 76.3637L123.582 78.2793C127.057 79.3007 129.664 81.0192 131.392 83.4316L124.975 86.1511C123.858 84.4823 122.135 83.2257 119.828 82.3749L113.361 89.4292L113.513 89.4632C116.708 91.0051 118.698 92.5502 119.428 94.1097ZM107.718 100.579C109.182 100.211 110.309 99.5952 111.117 98.7135C111.917 97.8411 112.194 97.0572 111.932 96.381C111.67 95.7042 110.739 94.9116 109.155 94.0181L102.958 100.778C104.673 101.015 106.255 100.948 107.718 100.579ZM110.776 88.0357L116.729 81.541C115.141 81.2987 113.665 81.3668 112.298 81.7457C110.941 82.1149 109.869 82.7201 109.095 83.5637C108.331 84.398 108.05 85.1358 108.266 85.7789C108.491 86.4127 109.318 87.1706 110.776 88.0357Z" fill="#FED44C"/>
<path d="M147.101 59.4265L151.21 72.6803C149.379 66.8115 143.69 62.1202 134.552 60.0835C130.029 59.0507 125.061 58.7933 119.981 59.1563C104.748 60.2678 88.3734 67.1838 78.9903 77.4175C72.8025 84.1846 70.8002 91.1487 72.5863 96.9557L68.5001 83.6946C66.721 77.9103 68.7005 70.9546 74.9114 64.1803C84.2945 53.9465 100.662 47.0067 115.895 45.8951C120.975 45.5322 125.927 45.8195 130.466 46.8224C139.588 48.8902 145.293 53.5504 147.101 59.4265Z" fill="#F2BC36"/>
<path d="M147.105 59.4229L151.197 72.6724C152.987 78.4678 150.992 85.4343 144.78 92.2116L140.688 78.9622C146.9 72.1849 148.895 65.2183 147.105 59.4229Z" fill="#F9C73A"/>
<path d="M72.5967 96.9486L68.5043 83.6992C70.3169 89.5677 76.0095 94.2357 85.1312 96.2869C103.275 100.367 128.196 92.5924 140.689 78.9634L144.782 92.2128C132.288 105.842 107.368 113.616 89.2235 109.536C80.1018 107.485 74.4093 102.817 72.5967 96.9486Z" fill="#F9C73A"/>
<path d="M131.561 50.3536C149.705 54.4337 154.29 68.8431 141.785 82.4856C129.291 96.1145 104.371 103.889 86.2265 99.8091C68.1001 95.733 63.515 81.3235 76.0083 67.6946C88.5141 54.0521 113.435 46.2776 131.561 50.3536Z" fill="#F9C73A"/>
<path d="M158.736 55.8339L162.828 69.0833C165.146 76.5883 162.556 85.6122 154.5 94.4006C138.284 112.09 106.052 122.136 82.5248 116.846C70.6853 114.183 63.3028 108.144 60.9561 100.546L56.8638 87.2969C59.2105 94.8946 66.593 100.934 78.4325 103.596C101.96 108.887 134.192 98.8408 150.408 81.1511C158.464 72.3627 161.054 63.3389 158.736 55.8339Z" fill="#F2BC36"/>
<path d="M137.161 39.526C160.688 44.8167 166.62 63.4609 150.404 81.1513C134.188 98.841 101.956 108.887 78.4287 103.596C54.9011 98.3058 48.9744 79.6791 65.1902 61.9894C81.4066 44.299 113.633 34.2354 137.161 39.526ZM85.1271 96.2893C103.271 100.369 128.192 92.5949 140.685 78.9659C153.191 65.3234 148.606 50.914 130.462 46.8339C112.335 42.7579 87.4147 50.5324 74.9089 64.1749C62.4156 77.8038 67.0007 92.2132 85.1271 96.2893Z" fill="#FED44C"/>
<path d="M124.096 56.4574L124.939 59.1883L123.183 61.1039L122.34 58.3729L124.096 56.4574Z" fill="#F2BC36"/>
<path d="M107.858 68.5667L107.015 65.8358C106.819 65.2005 107.103 64.4737 107.855 63.6536C108.628 62.81 109.7 62.2048 111.057 61.8356C112.424 61.4567 113.901 61.3886 115.488 61.6309L116.332 64.3619C114.744 64.1196 113.267 64.1876 111.901 64.5665C110.543 64.9357 109.472 65.5409 108.698 66.3845C107.946 67.2046 107.662 67.9314 107.858 68.5667Z" fill="#F2BC36"/>
<path d="M118.592 62.4709L119.435 65.2018L112.969 72.2562L112.125 69.5252L118.592 62.4709Z" fill="#F2BC36"/>
<path d="M123.737 66.2426L124.58 68.9735C123.463 67.3047 121.741 66.0481 119.433 65.1973L118.59 62.4663C120.897 63.3172 122.62 64.5738 123.737 66.2426Z" fill="#F2BC36"/>
<path d="M130.154 63.5219L130.997 66.2528L124.581 68.9723L123.737 66.2414L130.154 63.5219Z" fill="#F2BC36"/>
<path d="M100.152 70.5137L99.3085 67.7827C99.3548 67.9326 99.4138 68.0794 99.4854 68.2231C100.217 69.7142 102.162 71.2266 105.302 72.745L106.146 75.4759C103.005 73.9576 101.061 72.4451 100.329 70.9541C100.257 70.8103 100.198 70.6635 100.152 70.5137Z" fill="#F2BC36"/>
<path d="M110.724 76.561L111.568 79.292C111.558 79.26 111.547 79.2283 111.535 79.1968C111.273 78.52 110.342 77.7275 108.757 76.834L107.914 74.1031C109.498 74.9965 110.429 75.7891 110.691 76.4659C110.703 76.4974 110.714 76.5291 110.724 76.561Z" fill="#F2BC36"/>
<path d="M107.917 74.1128L108.76 76.8437L102.563 83.6038L101.72 80.8728L107.917 74.1128Z" fill="#F2BC36"/>
<path d="M94.8656 84.1285L95.7091 86.8594C91.4659 85.4821 88.6316 83.1981 87.1813 80.0019L86.3378 77.271C87.7881 80.4672 90.6224 82.7511 94.8656 84.1285Z" fill="#F2BC36"/>
<path d="M95.5584 87.5889L96.4018 90.3199L93.1989 89.5996L92.3554 86.8687L95.5584 87.5889Z" fill="#F2BC36"/>
<path d="M98.0352 84.8857L98.8787 87.6167L96.4017 90.3187L95.5582 87.5878L98.0352 84.8857Z" fill="#F2BC36"/>
<path d="M118.363 74.6371L119.207 77.3681C119.658 78.8311 118.968 80.5563 117.144 82.5456C115.128 84.7452 112.46 86.2955 109.144 87.2077C105.816 88.1176 102.393 88.2513 98.8793 87.6212L98.0358 84.8903C101.55 85.5203 104.972 85.3867 108.301 84.4768C111.616 83.5645 114.285 82.0142 116.301 79.8147C118.124 77.8253 118.815 76.1002 118.363 74.6371Z" fill="#F2BC36"/>
<path d="M118.19 74.1956C118.942 75.7482 118.308 77.6182 116.3 79.8085C114.284 82.008 111.615 83.5583 108.3 84.4706C104.971 85.3805 101.548 85.5142 98.0348 84.8841L95.5578 87.5862L92.3549 86.8659L94.8667 84.1258C90.6235 82.7484 87.7892 80.4645 86.3389 77.2683L92.9816 74.8168C94.1038 77.276 95.9793 79.013 98.621 80.0302L105.304 72.7392C102.164 71.2209 100.219 69.7085 99.4874 68.2174C98.7428 66.7235 99.3674 64.8972 101.358 62.726C103.34 60.564 105.961 59.0149 109.239 58.0941C112.525 57.1636 115.835 57.0045 119.176 57.6069L120.897 55.7294L124.1 56.4497L122.344 58.3652C125.818 59.3866 128.426 61.1052 130.153 63.5175L123.737 66.237C122.62 64.5682 120.897 63.3116 118.59 62.4608L112.123 69.5151L112.274 69.5491C115.47 71.091 117.46 72.6361 118.19 74.1956ZM106.48 80.6653C107.943 80.2969 109.07 79.6812 109.879 78.7995C110.678 77.9271 110.956 77.1432 110.694 76.467C110.432 75.7902 109.501 74.9976 107.917 74.1041L101.72 80.8642C103.434 81.1008 105.017 81.0336 106.48 80.6653ZM109.537 68.1217L115.491 61.627C113.903 61.3847 112.426 61.4527 111.06 61.8317C109.702 62.2008 108.63 62.8061 107.857 63.6496C107.092 64.484 106.811 65.2218 107.028 65.8649C107.253 66.4987 108.079 67.2565 109.537 68.1217Z" fill="#FED44C"/>
<path d="M152.892 33.2155L157.001 46.4693C155.17 40.6005 149.481 35.9093 140.343 33.8726C135.82 32.8397 130.852 32.5824 125.772 32.9453C110.539 34.0569 94.1644 40.9728 84.7814 51.2066C78.5935 57.9737 76.5912 64.9378 78.3773 70.7448L74.2912 57.4837C72.512 51.6993 74.4915 44.7436 80.7025 37.9694C90.0855 27.7356 106.453 20.7957 121.686 19.6842C126.766 19.3213 131.718 19.6086 136.257 20.6115C145.379 22.6792 151.084 27.3394 152.892 33.2155Z" fill="#F2BC36"/>
<path d="M152.896 33.212L156.988 46.4614C158.778 52.2568 156.783 59.2234 150.571 66.0007L146.479 52.7513C152.691 45.9739 154.686 39.0074 152.896 33.212Z" fill="#F9C73A"/>
<path d="M78.3877 70.7376L74.2954 57.4883C76.108 63.3567 81.8005 68.0247 90.9222 70.0759C109.066 74.1559 133.987 66.3815 146.48 52.7525L150.573 66.0019C138.079 79.6308 113.159 87.4053 95.0145 83.3253C85.8929 81.2741 80.2004 76.6061 78.3877 70.7376Z" fill="#F9C73A"/>
<path d="M137.352 24.1427C155.496 28.2227 160.081 42.6322 147.576 56.2747C135.082 69.9036 110.162 77.6781 92.0175 73.5981C73.8911 69.5221 69.306 55.1126 81.7994 41.4837C94.3052 27.8412 119.226 20.0667 137.352 24.1427Z" fill="#F9C73A"/>
<path d="M164.527 29.623L168.619 42.8724C170.937 50.3774 168.347 59.4012 160.291 68.1896C144.075 85.8793 111.844 95.9254 88.3158 90.6348C76.4763 87.9725 69.0938 81.933 66.7471 74.3353L62.6548 61.0859C65.0015 68.6836 72.384 74.723 84.2235 77.3854C107.751 82.676 139.983 72.6299 156.199 54.9402C164.255 46.1518 166.845 37.128 164.527 29.623Z" fill="#F2BC36"/>
<path d="M142.952 13.3151C166.479 18.6057 172.411 37.25 156.195 54.9404C139.979 72.63 107.747 82.6762 84.2198 77.3855C60.6922 72.0949 54.7654 53.4681 70.9812 35.7785C87.1975 18.0881 119.424 8.02448 142.952 13.3151ZM90.9181 70.0783C109.062 74.1584 133.983 66.3839 146.476 52.7549C158.982 39.1124 154.397 24.703 136.253 20.623C118.126 16.5469 93.2058 24.3214 80.7 37.9639C68.2066 51.5929 72.7917 66.0023 90.9181 70.0783Z" fill="#FED44C"/>
<path d="M129.883 30.2464L130.727 32.9773L128.971 34.8929L128.127 32.162L129.883 30.2464Z" fill="#F2BC36"/>
<path d="M113.644 42.3597L112.8 39.6288C112.604 38.9935 112.888 38.2667 113.64 37.4466C114.413 36.603 115.485 35.9978 116.843 35.6286C118.209 35.2497 119.686 35.1816 121.274 35.4239L122.117 38.1548C120.529 37.9125 119.052 37.9806 117.686 38.3595C116.329 38.7287 115.257 39.3339 114.483 40.1775C113.732 40.9976 113.447 41.7244 113.644 42.3597Z" fill="#F2BC36"/>
<path d="M124.377 36.2639L125.221 38.9948L118.754 46.0491L117.91 43.3182L124.377 36.2639Z" fill="#F2BC36"/>
<path d="M129.524 40.0355L130.367 42.7665C129.251 41.0976 127.528 39.8411 125.22 38.9902L124.377 36.2593C126.684 37.1102 128.407 38.3667 129.524 40.0355Z" fill="#F2BC36"/>
<path d="M135.941 37.3148L136.785 40.0458L130.368 42.7652L129.524 40.0343L135.941 37.3148Z" fill="#F2BC36"/>
<path d="M105.939 44.3066L105.096 41.5757C105.142 41.7256 105.201 41.8724 105.273 42.0161C106.005 43.5071 107.949 45.0196 111.09 46.5379L111.933 49.2689C108.793 47.7505 106.848 46.2381 106.116 44.747C106.044 44.6033 105.985 44.4565 105.939 44.3066Z" fill="#F2BC36"/>
<path d="M116.509 50.3579L117.353 53.0889C117.343 53.0569 117.332 53.0252 117.32 52.9937C117.058 52.3169 116.127 51.5243 114.543 50.6309L113.699 47.8999C115.283 48.7934 116.214 49.586 116.476 50.2628C116.488 50.2943 116.499 50.326 116.509 50.3579Z" fill="#F2BC36"/>
<path d="M113.704 47.9057L114.547 50.6366L108.35 57.3967L107.507 54.6658L113.704 47.9057Z" fill="#F2BC36"/>
<path d="M100.653 57.9214L101.496 60.6523C97.253 59.275 94.4188 56.9911 92.9684 53.7949L92.1249 51.064C93.5753 54.2602 96.4095 56.5441 100.653 57.9214Z" fill="#F2BC36"/>
<path d="M101.343 61.3819L102.187 64.1128L98.984 63.3926L98.1405 60.6616L101.343 61.3819Z" fill="#F2BC36"/>
<path d="M103.824 58.6865L104.668 61.4175L102.191 64.1196L101.347 61.3886L103.824 58.6865Z" fill="#F2BC36"/>
<path d="M124.15 48.4301L124.994 51.161C125.446 52.6241 124.755 54.3492 122.932 56.3386C120.915 58.5381 118.247 60.0884 114.931 61.0007C111.603 61.9106 108.18 62.0442 104.666 61.4142L103.823 58.6833C107.337 59.3133 110.76 59.1797 114.088 58.2698C117.403 57.3575 120.072 55.8072 122.088 53.6077C123.912 51.6183 124.602 49.8931 124.15 48.4301Z" fill="#F2BC36"/>
<path d="M123.975 47.9886C124.727 49.5412 124.093 51.4112 122.085 53.6015C120.069 55.801 117.4 57.3514 114.085 58.2636C110.757 59.1735 107.334 59.3072 103.82 58.6771L101.343 61.3792L98.14 60.6589L100.652 57.9188C96.4086 56.5414 93.5744 54.2575 92.124 51.0613L98.7667 48.6098C99.889 51.069 101.764 52.806 104.406 53.8232L111.09 46.5322C107.949 45.0139 106.005 43.5014 105.273 42.0103C104.528 40.5164 105.153 38.6902 107.143 36.5189C109.125 34.357 111.746 32.8079 115.024 31.8871C118.31 30.9566 121.62 30.7974 124.961 31.3999L126.682 29.5224L129.885 30.2427L128.129 32.1583C131.604 33.1796 134.211 34.8982 135.939 37.3105L129.522 40.03C128.405 38.3612 126.682 37.1046 124.375 36.2538L117.908 43.3081L118.06 43.3422C121.255 44.884 123.245 46.4291 123.975 47.9886ZM112.265 54.4582C113.728 54.0899 114.856 53.4741 115.664 52.5925C116.463 51.7201 116.741 50.9362 116.479 50.2599C116.217 49.5831 115.286 48.7906 113.702 47.8971L107.505 54.6572C109.219 54.8938 110.802 54.8266 112.265 54.4582ZM115.323 41.9146L121.276 35.4199C119.688 35.1776 118.211 35.2457 116.845 35.6246C115.488 35.9938 114.416 36.599 113.642 37.4426C112.877 38.2769 112.597 39.0147 112.813 39.6578C113.038 40.2917 113.865 41.0495 115.323 41.9146Z" fill="#FED44C"/>
<path d="M109.596 128.141L98.8528 139.879C96.4556 142.498 93.1917 144.305 89.1961 145.172C86.6532 145.731 83.8094 145.888 80.6827 145.606C79.0005 145.459 77.2504 145.188 75.4232 144.763C54.5958 140.1 32.5626 119.77 26.3023 99.5161C26.3023 99.5161 26.3023 99.5161 26.2942 99.4901L26.0698 98.7711C24.6893 93.9714 24.3318 89.6416 24.8464 85.8585C25.0901 84.2045 25.4816 82.6499 26.0568 81.215C26.8263 79.28 27.8917 77.5437 29.2436 76.0704L39.9953 64.3598C38.6434 65.833 37.5695 67.542 36.8081 69.5031C36.2248 70.912 35.8333 72.4666 35.6162 74.1123C35.0752 77.9035 35.441 82.2608 36.8395 87.0249C36.9142 87.2641 36.9627 87.5129 37.0459 87.7794C43.3143 108.059 65.339 128.362 86.1749 133.053C87.9936 133.45 89.7703 133.713 91.4529 133.861C94.5526 134.15 97.3964 133.993 99.9474 133.46C103.943 132.594 107.199 130.76 109.596 128.141Z" fill="#FED44C"/>
<path d="M109.606 128.146L98.8505 139.879C103.553 134.749 104.909 126.547 101.797 116.475L112.553 104.742C115.664 114.814 114.308 123.016 109.606 128.146Z" fill="#F9C73A"/>
<path d="M29.2443 76.0834L39.9996 64.3506C44.765 59.1519 52.9686 57.1081 63.4484 59.4646L52.6932 71.1975C42.2133 68.8409 34.0098 70.8847 29.2443 76.0834Z" fill="#F9C73A"/>
<path d="M52.6923 71.193L63.4475 59.4601C84.253 64.1387 106.283 84.4482 112.552 104.744L101.797 116.477C95.5279 96.181 73.4978 75.8715 52.6923 71.193Z" fill="#F9C73A"/>
<path d="M55.0557 67.8596C75.8612 72.5381 97.8914 92.8476 104.16 113.144C110.423 133.42 98.5866 146.114 77.7811 141.435C56.9556 136.752 34.9254 116.443 28.6628 96.1667C22.3939 75.8706 34.2302 63.1766 55.0557 67.8596Z" fill="#F2BC36"/>
<path d="M49.3344 60.3218C76.3394 66.3944 104.823 92.6683 112.952 118.987C121.081 145.304 105.781 161.713 78.7756 155.641C51.7707 149.568 23.2731 123.31 15.1445 96.9928C7.01554 70.6744 22.3296 54.2493 49.3344 60.3218ZM75.4179 144.77C96.2233 149.448 108.06 136.754 101.797 116.478C95.5282 96.182 73.498 75.8724 52.6925 71.1939C31.8671 66.5109 20.0307 79.2049 26.2996 99.5012C32.5622 119.777 54.5924 140.087 75.4179 144.77Z" fill="#F9C73A"/>
<path d="M71.6629 126.139L73.5306 124.101L74.7237 127.964L72.8559 130.002L71.6629 126.139Z" fill="#E2AB30"/>
<path d="M55.3531 112.638L57.2208 110.601C61.11 113.897 64.7736 116.17 68.184 117.402L66.3162 119.439C62.9058 118.207 59.2423 115.935 55.3531 112.638Z" fill="#FED44C"/>
<path d="M69.8863 120.392L71.754 118.355C73.4671 118.574 74.7031 118.387 75.4827 117.788L73.6149 119.826C72.8354 120.425 71.5993 120.611 69.8863 120.392Z" fill="#FED44C"/>
<path d="M75.7572 117.54L73.8894 119.578C73.8083 119.666 73.7173 119.749 73.6163 119.826L75.4841 117.789C75.585 117.711 75.6761 117.629 75.7572 117.54Z" fill="black"/>
<path d="M66.9078 110.735L68.7756 108.698L71.7601 118.36L69.8923 120.398L66.9078 110.735Z" fill="#E2AB30"/>
<path d="M64.8843 104.185L66.7521 102.148L66.9228 102.186L65.055 104.224L64.8843 104.185Z" fill="#FED44C"/>
<path d="M54.6003 93.8542L56.4681 91.8166C55.9233 92.411 55.8102 93.2523 56.1506 94.3545C56.5176 95.5428 57.1772 96.5761 58.1254 97.4415C59.0859 98.3103 60.6817 99.2883 62.9286 100.391L61.0608 102.428C58.8139 101.326 57.2182 100.348 56.2576 99.479C55.3095 98.6136 54.6498 97.5803 54.2828 96.392C53.9424 95.2899 54.0555 94.4485 54.6003 93.8542Z" fill="#FED44C"/>
<path d="M65.0543 104.224L66.922 102.187C71.4425 104.11 74.9437 106.114 77.438 108.201L75.5703 110.239C73.0759 108.151 69.5747 106.148 65.0543 104.224Z" fill="#FED44C"/>
<path d="M81.934 122.549L80.0662 124.587C81.4113 123.12 81.6495 120.951 80.7587 118.067C79.7897 114.93 78.0519 112.316 75.5699 110.232L77.4377 108.195C79.9196 110.278 81.6574 112.892 82.6265 116.03C83.5173 118.914 83.279 121.082 81.934 122.549Z" fill="#FED44C"/>
<path d="M61.7683 94.1021L63.6361 92.0645L66.7488 102.142L64.8811 104.18L61.7683 94.1021Z" fill="#E2AB30"/>
<path d="M48.4504 88.9704L50.3182 86.9329C50.4107 86.8319 50.5086 86.7342 50.6116 86.6399C52.2254 85.1782 54.7816 84.7469 58.2873 85.369L56.4195 87.4065C52.9138 86.7844 50.3576 87.2158 48.7438 88.6775C48.6407 88.7718 48.5429 88.8695 48.4504 88.9704Z" fill="#FED44C"/>
<path d="M55.5914 84.7242L57.4591 82.6867L60.9834 83.4792L59.1156 85.5168L55.5914 84.7242Z" fill="#FED44C"/>
<path d="M59.1147 85.5148L60.9825 83.4772L61.8303 86.222L59.9625 88.2596L59.1147 85.5148Z" fill="#E2AB30"/>
<path d="M59.9625 88.2555L61.8302 86.2179C65.9548 87.4112 70.1866 89.6126 74.5217 92.8098L72.654 94.8474C68.3189 91.6502 64.087 89.4488 59.9625 88.2555Z" fill="#FED44C"/>
<path d="M72.6526 94.8495L74.5204 92.812L72.4744 96.9526L70.6066 98.9902L72.6526 94.8495Z" fill="#E2AB30"/>
<path d="M75.5695 110.238C78.0515 112.322 79.7893 114.936 80.7583 118.073C81.7238 121.199 81.363 123.484 79.7041 124.947C78.0332 126.408 75.3515 126.8 71.6627 126.136L72.8558 129.999L69.3315 129.206L68.1201 125.284C62.9417 123.655 57.8276 120.692 52.778 116.394L55.351 112.637C59.2403 115.933 62.9038 118.206 66.3142 119.437L63.0985 109.026C58.655 107.131 55.2257 105.177 52.8144 103.175C50.4031 101.173 48.7166 98.6152 47.7621 95.5248C46.8078 92.4351 47.1357 90.1533 48.7457 88.6793C50.3595 87.2176 52.9157 86.7863 56.4214 87.4084L55.5919 84.7229L59.1162 85.5154L59.964 88.2602C64.0886 89.4535 68.3204 91.6549 72.6556 94.8521L70.6096 98.9927C67.6616 96.7597 64.7203 95.1358 61.7701 94.1077L64.8828 104.185L65.0535 104.224C69.574 106.148 73.0752 108.151 75.5695 110.238ZM73.6186 119.83C74.3896 119.24 74.5824 118.321 74.197 117.074C73.8078 115.814 73.1007 114.737 72.0685 113.82C71.0238 112.899 69.3109 111.872 66.9054 110.734L69.8898 120.396C71.6029 120.615 72.839 120.429 73.6186 119.83ZM61.0612 102.43L58.1944 93.1488C56.5921 92.9211 55.4462 93.1056 54.757 93.703C54.0797 94.3025 53.9124 95.1937 54.2832 96.3943C54.6502 97.5825 55.3098 98.6158 56.258 99.4813C57.2185 100.35 58.8143 101.328 61.0612 102.43Z" fill="#F9C73A"/>
<path d="M123.725 107.246C127.751 120.337 126.01 130.96 119.927 137.591L109.157 149.338C115.258 142.67 116.999 132.047 112.955 118.992C104.828 92.6589 76.3544 66.3903 49.3342 60.3272C35.7542 57.259 25.1249 59.9031 18.9519 66.6214L29.7032 54.9094C35.8681 48.1652 46.4974 45.5211 60.1039 48.581C87.0976 54.6523 115.571 80.921 123.725 107.246Z" fill="#FED44C"/>
<path d="M100.745 135.149L102.285 137.447L100.066 135.795L98.8845 141.782L97.9982 135.745L95.7005 137.285L97.3517 135.066L91.3651 133.885L97.4024 132.998L95.862 130.701L98.0814 132.352L99.2626 126.365L100.149 132.402L102.447 130.862L100.795 133.081L106.782 134.263L100.745 135.149Z" fill="white"/>
<path d="M139.257 31.5981L142.112 35.8571L137.999 32.7963L135.809 43.8932L134.166 32.7023L129.907 35.5577L132.968 31.4438L121.871 29.2545L133.062 27.6114L130.207 23.3529L134.32 26.4132L136.51 15.3167L138.153 26.5072L142.412 23.6522L139.351 27.7657L150.448 29.9555L139.257 31.5981Z" fill="white"/>
</svg>
