<svg width="139" height="139" viewBox="0 0 139 139" fill="none" xmlns="http://www.w3.org/2000/svg">
<path d="M128.892 79.4448C123.37 112.276 92.2784 134.414 59.4469 128.891C26.6155 123.369 4.47793 92.2773 10.0005 59.4458C15.5232 26.6144 46.6144 4.47684 79.4458 9.99946C112.277 15.5221 134.415 46.6133 128.892 79.4448Z" fill="url(#paint0_radial_562_3615)"/>
<path d="M10.0006 59.4441C6.43156 80.6614 14.4178 101.149 29.3739 114.482L92.5786 125.114C111.074 117.408 125.323 100.66 128.892 79.443C132.461 58.2257 124.475 37.7379 109.519 24.4052L46.3142 13.7734C27.8192 21.4793 13.5695 38.2268 10.0006 59.4441Z" fill="url(#paint1_linear_562_3615)"/>
<path d="M10.0001 59.4461C7.45405 74.5824 10.791 89.3456 18.3402 101.408L107.282 116.369C118.362 107.44 126.346 94.5813 128.892 79.445C131.438 64.3087 128.101 49.5455 120.552 37.4839L31.6096 22.5228C20.5295 31.4508 12.5462 44.3098 10.0001 59.4461H10.0001Z" fill="url(#paint2_linear_562_3615)"/>
<path d="M9.99904 59.4441C8.51093 68.2907 9.03389 77.0093 11.2308 85.1364L119.321 103.318C124.056 96.3573 127.403 88.2897 128.891 79.443C130.379 70.5963 129.856 61.8777 127.659 53.7506L19.5687 35.5686C14.8337 42.5297 11.4871 50.5974 9.99904 59.4441Z" fill="url(#paint3_linear_562_3615)"/>
<path d="M9.99977 59.4499C9.13846 64.5703 8.95224 69.6476 9.37215 74.5927L124.53 93.9636C126.545 89.428 128.03 84.5692 128.891 79.4488C129.753 74.3284 129.939 69.2511 129.519 64.306L14.3609 44.9351C12.3462 49.4707 10.8611 54.3295 9.99977 59.4499V59.4499Z" fill="url(#paint4_linear_562_3615)"/>
<path d="M74.6922 9.38903C43.6638 6.64425 15.2539 28.2012 9.99862 59.4435C4.74332 90.6858 24.537 120.351 54.7559 127.909C85.7843 130.654 114.194 109.097 119.45 77.8544C124.705 46.6121 104.911 16.9467 74.6922 9.38903Z" fill="url(#paint5_radial_562_3615)"/>
<path d="M76.8544 15.3443C74.8601 14.7234 72.7884 14.375 70.6999 14.3091C43.5906 13.4566 19.3432 32.7421 14.7186 60.2345C10.0941 87.7269 26.6976 113.884 52.5939 121.948C54.589 122.569 56.6608 122.917 58.7484 122.983C85.8586 123.835 110.106 104.55 114.731 77.0576C119.355 49.5652 102.752 23.4081 76.8544 15.3443Z" fill="url(#paint6_radial_562_3615)"/>
<path d="M104.234 75.2929C108.263 51.3389 93.7317 28.9266 71.7778 25.2337C49.823 21.5406 28.759 37.9655 24.7296 61.9194C20.7003 85.8734 35.2316 108.286 57.1863 111.979C79.1402 115.672 100.204 99.2468 104.234 75.2929Z" fill="url(#paint7_radial_562_3615)"/>
<path d="M82.4148 28.7347C77.7246 26.3639 72.4381 25.4746 67.2304 26.1805C49.7124 28.5551 34.7097 43.2199 31.375 63.044C27.9752 83.2553 37.7915 102.368 54.1303 110.065C58.245 112.003 62.8275 112.774 67.3499 112.289C85.3075 110.361 100.836 95.5122 104.236 75.2999C107.57 55.4759 98.1918 36.7099 82.4148 28.7347Z" fill="url(#paint8_radial_562_3615)"/>
<path d="M102.678 81.7873L80.7905 51.0459C80.4524 50.1337 79.5757 49.2793 78.1575 48.4829C76.7018 47.6663 75.1146 47.0104 73.4008 46.5076L71.4379 44.0591C71.4464 43.7257 71.3057 43.398 70.9959 43.0772C70.638 42.7092 70.2236 42.4837 69.7528 42.4046C69.2385 42.318 68.7722 42.3954 68.3581 42.6335C67.943 42.8724 67.703 43.1846 67.6381 43.5701L67.3243 45.436C63.7852 45.238 60.6842 45.9066 58.0229 47.4438C55.3598 48.9807 53.7158 51.6124 53.0891 55.3377C52.8659 56.6648 52.8122 57.8991 52.9296 59.0419C53.0454 60.1834 53.3786 61.2188 53.9286 62.1471C54.4775 63.0761 55.0153 63.882 55.5395 64.5643C55.5669 64.6006 55.5991 64.6368 55.6284 64.6734L62.4684 74.3035L60.6581 85.0659C58.7794 84.6175 57.1877 83.8442 55.884 82.7444C54.5811 81.6457 53.5787 80.6516 52.8766 79.763C52.1744 78.8745 51.5689 78.3874 51.061 78.302C50.2927 78.1727 49.5422 78.4644 48.8085 79.1776C48.0748 79.8908 47.6405 80.6535 47.5037 81.4672C47.2795 82.7997 47.8314 84.2431 49.1541 85.7957L67.9628 112.212C83.6829 110.261 97.444 98.4144 102.678 81.7873Z" fill="url(#paint9_linear_562_3615)"/>
<path d="M47.4999 81.4663C47.6368 80.6526 48.0719 79.8901 48.8056 79.1768C49.5392 78.4645 50.2898 78.172 51.0581 78.3012C51.5661 78.3866 52.1716 78.8737 52.8737 79.7623C53.5757 80.6517 54.5783 81.6449 55.8812 82.7436C57.1847 83.8443 58.7764 84.6176 60.6552 85.0652L63.1931 69.9779C61.9859 69.2916 61.0612 68.7499 60.4233 68.3563C59.7831 67.9641 58.94 67.4035 57.8935 66.6772C56.8468 65.9517 56.0606 65.2468 55.5365 64.5644C55.0125 63.8812 54.4745 63.0762 53.9265 62.1474C53.3758 61.2181 53.0433 60.1837 52.9268 59.0411C52.8101 57.8994 52.8638 56.6651 53.087 55.338C53.7137 51.6127 55.357 48.9799 58.0199 47.4439C60.6821 45.9069 63.7823 45.2373 67.3213 45.4361L67.6351 43.5703C67.7001 43.1839 67.9401 42.8717 68.3553 42.6328C68.7694 42.3946 69.2355 42.3182 69.7498 42.4047C70.2215 42.484 70.6352 42.7085 70.993 43.0765C71.3498 43.4452 71.4962 43.8224 71.4312 44.2088L71.139 45.9459C73.7396 46.4719 76.0786 47.3168 78.1547 48.4822C80.2299 49.6474 81.149 50.9372 80.911 52.3522C80.7812 53.1241 80.3855 53.8849 79.726 54.6339C79.0665 55.383 78.3031 55.6846 77.4387 55.5392C77.0967 55.4816 76.2182 54.9598 74.8053 53.9713C73.3904 52.9843 71.8372 52.2809 70.1434 51.8645L67.9504 64.9019C69.5486 65.8311 70.8637 66.68 71.8967 67.4479C72.9297 68.2158 73.9893 69.2195 75.0756 70.4581C76.1608 71.6975 76.8919 73.1515 77.2686 74.821C77.6454 76.4906 77.6577 78.3749 77.3049 80.472C76.6604 84.3035 75.1031 87.1737 72.6331 89.0816C70.1621 90.9904 67.0931 91.9012 63.4232 91.8156L63.0618 93.9644C62.998 94.3436 62.7373 94.6458 62.2803 94.873C61.8225 95.0991 61.3588 95.1722 60.888 95.093C60.3728 95.0064 59.9577 94.7845 59.6424 94.4302C59.3275 94.0731 59.2027 93.7061 59.2664 93.3269L59.5957 91.3695C55.8712 90.6991 52.8509 89.3134 50.5368 87.2116C48.2206 85.1114 47.209 83.1961 47.4999 81.4663ZM59.5634 55.768C59.2827 57.437 59.5882 58.798 60.4802 59.85C61.3721 60.902 62.7945 61.9891 64.7449 63.1091L66.7123 51.4133C62.4659 51.2278 60.083 52.6794 59.5634 55.768ZM64.0866 85.5099C67.9752 85.4598 70.22 83.6595 70.8176 80.1065C71.1342 78.2243 70.8884 76.6635 70.0823 75.4282C69.2753 74.1928 68.0369 73.0377 66.3652 71.9637L64.0866 85.5099Z" fill="url(#paint10_linear_562_3615)"/>
<defs>
<radialGradient id="paint0_radial_562_3615" cx="0" cy="0" r="1" gradientUnits="userSpaceOnUse" gradientTransform="translate(66.9045 66.9108) rotate(9.5484) scale(62.7849)">
<stop stop-color="#FFA700"/>
<stop offset="0.3227" stop-color="#FCA300"/>
<stop offset="0.6649" stop-color="#F39600"/>
<stop offset="1" stop-color="#E58200"/>
</radialGradient>
<linearGradient id="paint1_linear_562_3615" x1="71.0263" y1="60.0516" x2="53.1577" y2="166.279" gradientUnits="userSpaceOnUse">
<stop stop-color="#E58200" stop-opacity="0"/>
<stop offset="0.0396" stop-color="#E27F04" stop-opacity="0.039216"/>
<stop offset="0.4671" stop-color="#C15D2F" stop-opacity="0.466667"/>
<stop offset="0.8016" stop-color="#AD4949" stop-opacity="0.8"/>
<stop offset="1" stop-color="#A64153"/>
</linearGradient>
<linearGradient id="paint2_linear_562_3615" x1="67.0263" y1="83.8308" x2="85.0832" y2="-23.516" gradientUnits="userSpaceOnUse">
<stop stop-color="#E58200" stop-opacity="0"/>
<stop offset="0.0396" stop-color="#E27F04" stop-opacity="0.039216"/>
<stop offset="0.4671" stop-color="#C15D2F" stop-opacity="0.466667"/>
<stop offset="0.8016" stop-color="#AD4949" stop-opacity="0.8"/>
<stop offset="1" stop-color="#A64153"/>
</linearGradient>
<linearGradient id="paint3_linear_562_3615" x1="69.1426" y1="71.2409" x2="63.3677" y2="105.572" gradientUnits="userSpaceOnUse">
<stop stop-color="#E58200" stop-opacity="0"/>
<stop offset="0.0396" stop-color="#E27F04" stop-opacity="0.039216"/>
<stop offset="0.4671" stop-color="#C15D2F" stop-opacity="0.466667"/>
<stop offset="0.8016" stop-color="#AD4949" stop-opacity="0.8"/>
<stop offset="1" stop-color="#A64153"/>
</linearGradient>
<linearGradient id="paint4_linear_562_3615" x1="67.2612" y1="82.436" x2="77.0949" y2="23.9751" gradientUnits="userSpaceOnUse">
<stop stop-color="#E58200" stop-opacity="0"/>
<stop offset="0.0396" stop-color="#E27F04" stop-opacity="0.039216"/>
<stop offset="0.4671" stop-color="#C15D2F" stop-opacity="0.466667"/>
<stop offset="0.8016" stop-color="#AD4949" stop-opacity="0.8"/>
<stop offset="1" stop-color="#A64153"/>
</linearGradient>
<radialGradient id="paint5_radial_562_3615" cx="0" cy="0" r="1" gradientUnits="userSpaceOnUse" gradientTransform="translate(50.0237 49.687) rotate(9.5484) scale(84.3897 84.3897)">
<stop stop-color="#FFC738"/>
<stop offset="0.2837" stop-color="#FFC534"/>
<stop offset="0.5391" stop-color="#FFBF29"/>
<stop offset="0.7827" stop-color="#FFB417"/>
<stop offset="1" stop-color="#FFA700"/>
</radialGradient>
<radialGradient id="paint6_radial_562_3615" cx="0" cy="0" r="1" gradientUnits="userSpaceOnUse" gradientTransform="translate(64.7245 68.6461) rotate(9.5484) scale(52.7868 52.7868)">
<stop stop-color="#FFFCF8"/>
<stop offset="0.9485" stop-color="#FFFCF8" stop-opacity="0.05098"/>
<stop offset="1" stop-color="#FFFCF8" stop-opacity="0"/>
</radialGradient>
<radialGradient id="paint7_radial_562_3615" cx="0" cy="0" r="1" gradientUnits="userSpaceOnUse" gradientTransform="translate(69.4868 63.7294) rotate(9.5484) scale(63.0887 68.8366)">
<stop stop-color="#FFA700"/>
<stop offset="0.3227" stop-color="#FCA300"/>
<stop offset="0.6649" stop-color="#F39600"/>
<stop offset="1" stop-color="#E58200"/>
</radialGradient>
<radialGradient id="paint8_radial_562_3615" cx="0" cy="0" r="1" gradientUnits="userSpaceOnUse" gradientTransform="translate(55.1625 51.7056) rotate(9.5484) scale(64.2915 64.2915)">
<stop stop-color="#FFC738"/>
<stop offset="0.2837" stop-color="#FFC534"/>
<stop offset="0.5391" stop-color="#FFBF29"/>
<stop offset="0.7827" stop-color="#FFB417"/>
<stop offset="1" stop-color="#FFA700"/>
</radialGradient>
<linearGradient id="paint9_linear_562_3615" x1="85.2357" y1="84.0847" x2="46.4743" y2="67.9759" gradientUnits="userSpaceOnUse">
<stop stop-color="#FFA700" stop-opacity="0"/>
<stop offset="0.0206" stop-color="#FEA600" stop-opacity="0.019608"/>
<stop offset="0.6348" stop-color="#EC8C00" stop-opacity="0.635294"/>
<stop offset="1" stop-color="#E58200"/>
</linearGradient>
<linearGradient id="paint10_linear_562_3615" x1="61.5177" y1="68.1095" x2="76.1227" y2="70.5662" gradientUnits="userSpaceOnUse">
<stop stop-color="#FFA700"/>
<stop offset="0.3227" stop-color="#FCA300"/>
<stop offset="0.6649" stop-color="#F39600"/>
<stop offset="1" stop-color="#E58200"/>
</linearGradient>
</defs>
</svg>
