<svg width="158" height="158" viewBox="0 0 158 158" fill="none" xmlns="http://www.w3.org/2000/svg">
<path fill-rule="evenodd" clip-rule="evenodd" d="M125.075 138.01L59.3887 151.283C50.6782 153.043 41.6254 151.27 34.2217 146.356C26.8179 141.441 21.6696 133.787 19.9092 125.076L6.63639 59.39C4.87671 50.6795 6.64914 41.6267 11.5638 34.223C16.4785 26.8192 24.1328 21.6709 32.8432 19.9105L98.5295 6.63771C107.24 4.87763 116.293 6.64989 123.697 11.5646C131.101 16.4793 136.249 24.1339 138.009 32.8445L151.282 98.5308C153.042 107.241 151.27 116.294 146.355 123.698C141.44 131.102 133.786 136.25 125.075 138.01Z" fill="#9146FF"/>
<path fill-rule="evenodd" clip-rule="evenodd" d="M69.0469 51.0522L105.995 43.5863C110.731 42.629 114.919 39.8894 117.693 35.9334C120.468 31.9774 121.617 27.107 120.903 22.3281C120.19 17.5492 117.669 13.2268 113.86 10.2535C110.051 7.28011 105.246 5.88297 100.437 6.35054C99.8018 6.44257 99.1679 6.50872 98.5295 6.63771L32.8432 19.9105C24.1328 21.6709 16.4785 26.8192 11.5638 34.223C6.64914 41.6267 4.87671 50.6795 6.63639 59.39L19.9092 125.076C16.6094 108.744 19.9326 91.77 29.1476 77.8879C38.3626 64.0057 52.7148 54.3527 69.0469 51.0522Z" fill="#B469FF"/>
<path fill-rule="evenodd" clip-rule="evenodd" d="M111.802 72.3239C105.306 73.6365 99.3454 76.8458 94.6736 81.546C90.0018 86.2462 86.8286 92.2262 85.5555 98.7298C84.2823 105.233 84.9662 111.968 87.5208 118.083C90.0754 124.198 94.3859 129.418 99.9072 133.083C105.429 136.748 111.913 138.694 118.54 138.674C125.167 138.654 131.639 136.669 137.138 132.971C142.637 129.272 146.916 124.026 149.433 117.896C151.951 111.766 152.594 105.026 151.281 98.5307L138.009 32.8444C139.769 41.555 137.996 50.6079 133.082 58.0118C128.167 65.4156 120.512 70.5639 111.802 72.3239Z" fill="#7328E1"/>
<path fill-rule="evenodd" clip-rule="evenodd" d="M105.147 88.6244L114.412 74.6661L106.804 37.0133L53.4341 47.7974L63.3887 97.0622L79.8103 93.744L82.2989 106.06L92.1265 91.2553L105.147 88.6244ZM102.299 108.062C101.07 109.913 99.1562 111.2 96.9783 111.64L83.958 114.271C83.958 114.271 77.4998 124.001 73.6505 129.799C73.4214 130.144 73.0952 130.413 72.713 130.572C72.3309 130.732 71.91 130.775 71.5036 130.695C71.0971 130.616 70.7234 130.417 70.4297 130.125C70.1359 129.834 69.9354 129.461 69.8533 129.055L67.5364 117.589L51.1149 120.907C50.026 121.127 48.8944 120.906 47.9689 120.291C47.0435 119.677 46.3999 118.72 46.1799 117.631L35.2535 63.5571C35.0353 62.4787 35.0319 61.368 35.2434 60.2883C35.4549 59.2086 35.8772 58.1812 36.4861 57.2649C38.9672 53.5252 43.2686 47.0469 45.7498 43.3072C46.9791 41.4563 48.893 40.1692 51.0709 39.7289L109.251 27.973C110.339 27.7529 111.471 27.9745 112.396 28.5888C113.322 29.2032 113.965 30.16 114.185 31.2488L122.967 74.7077C123.187 75.7966 122.965 76.9282 122.351 77.8537C118.886 83.0718 106.985 101.001 102.299 108.062Z" fill="white"/>
<path d="M73.9824 54.3281L82.1932 52.669L86.341 73.196L78.1302 74.8551L73.9824 54.3281Z" fill="white"/>
<path d="M92.457 50.5938L100.668 48.9347L104.816 69.4616L96.6048 71.1207L92.457 50.5938Z" fill="white"/>
</svg>
