<svg width="17" height="17" viewBox="0 0 17 17" fill="none" xmlns="http://www.w3.org/2000/svg">
<path d="M8.33333 0C3.74083 8.33333e-09 0 3.74083 0 8.33333C0 12.9258 3.74083 16.6667 8.33333 16.6667H9.16667V15H8.33333C4.64157 15 1.66667 12.0251 1.66667 8.33333C1.66667 4.64157 4.64157 1.66667 8.33333 1.66667C12.0251 1.66667 15 4.64157 15 8.33333V11.25C15 11.9502 14.4502 12.5 13.75 12.5C13.0498 12.5 12.5 11.9502 12.5 11.25V8.33333C12.5 6.04202 10.6247 4.16667 8.33333 4.16667C6.04202 4.16667 4.16667 6.04202 4.16667 8.33333C4.16667 10.6247 6.04202 12.5 8.33333 12.5C9.29069 12.5 10.1651 12.1596 10.8708 11.6113C11.0528 13.0422 12.2728 14.1667 13.75 14.1667C15.351 14.1667 16.6667 12.851 16.6667 11.25V8.33333C16.6667 3.74083 12.9258 0 8.33333 0ZM8.33333 5.83333C9.72391 5.83333 10.8333 6.94276 10.8333 8.33333C10.8333 9.72391 9.72391 10.8333 8.33333 10.8333C6.94276 10.8333 5.83333 9.72391 5.83333 8.33333C5.83333 6.94276 6.94276 5.83333 8.33333 5.83333Z" fill="#F2994A"/>
</svg>
