<svg width="20" height="13" viewBox="0 0 20 13" fill="none" xmlns="http://www.w3.org/2000/svg">
<path d="M10 12.9285C6.25666 12.9285 2.6725 10.1744 0.306643 7.31529C-0.102215 6.82114 -0.102215 6.10384 0.306643 5.60973C0.901475 4.89085 2.14802 3.50393 3.81321 2.29183C8.00732 -0.760999 11.9846 -0.766887 16.1868 2.29183C18.1431 3.71577 19.6934 5.58302 19.6934 5.60973C20.1022 6.10384 20.1022 6.82114 19.6934 7.31525C17.3278 10.1741 13.7442 12.9285 10 12.9285ZM10 1.22814C5.85315 1.22814 2.25845 5.18282 1.25553 6.39488C1.22312 6.43406 1.22312 6.49095 1.25553 6.53013C2.25849 7.74219 5.85315 11.6969 10 11.6969C14.1468 11.6969 17.7416 7.74219 18.7445 6.53013C18.8029 6.45943 18.7406 6.39488 18.7445 6.39488C17.7415 5.18282 14.1468 1.22814 10 1.22814Z" fill="#F2994A"/>
<path d="M10.0001 10.7737C7.6232 10.7737 5.68945 8.8399 5.68945 6.463C5.68945 4.0861 7.6232 2.15234 10.0001 2.15234C12.377 2.15234 14.3108 4.0861 14.3108 6.463C14.3108 8.8399 12.377 10.7737 10.0001 10.7737ZM10.0001 3.38396C8.30233 3.38396 6.92107 4.76522 6.92107 6.463C6.92107 8.16078 8.30233 9.54204 10.0001 9.54204C11.6979 9.54204 13.0791 8.16078 13.0791 6.463C13.0791 4.76522 11.6979 3.38396 10.0001 3.38396Z" fill="#F2994A"/>
</svg>
