<svg width="15" height="20" viewBox="0 0 15 20" fill="none" xmlns="http://www.w3.org/2000/svg">
<path d="M7.14258 17.1445C5.78544 17.1445 4.64258 16.0017 4.64258 14.6445C4.64258 13.2874 5.78544 12.1445 7.14258 12.1445C8.49972 12.1445 9.64258 13.2874 9.64258 14.6445C9.64258 16.0017 8.49972 17.1445 7.14258 17.1445ZM7.14258 13.5731C6.57115 13.5731 6.07115 14.0731 6.07115 14.6445C6.07115 15.216 6.57115 15.716 7.14258 15.716C7.71401 15.716 8.21401 15.216 8.21401 14.6445C8.21401 14.0731 7.71401 13.5731 7.14258 13.5731Z" fill="#F2994A"/>
<path d="M12.1429 19.9994H2.14286C0.928571 19.9994 0 19.0709 0 17.8566V11.428C0 10.2137 0.928571 9.28516 2.14286 9.28516H12.1429C13.3571 9.28516 14.2857 10.2137 14.2857 11.428V17.8566C14.2857 19.0709 13.3571 19.9994 12.1429 19.9994ZM2.14286 10.7137C1.71429 10.7137 1.42857 10.9994 1.42857 11.428V17.8566C1.42857 18.2852 1.71429 18.5709 2.14286 18.5709H12.1429C12.5714 18.5709 12.8571 18.2852 12.8571 17.8566V11.428C12.8571 10.9994 12.5714 10.7137 12.1429 10.7137H2.14286Z" fill="#F2994A"/>
<path d="M11.8577 10.7143C11.4291 10.7143 11.1434 10.4286 11.1434 10V5.42857C11.1434 3.21429 9.3577 1.42857 7.14342 1.42857C4.92913 1.42857 3.14342 3.21429 3.14342 5.42857V10C3.14342 10.4286 2.8577 10.7143 2.42913 10.7143C2.00056 10.7143 1.71484 10.4286 1.71484 10V5.42857C1.71484 2.42857 4.14342 0 7.14342 0C10.1434 0 12.572 2.42857 12.572 5.42857V10C12.572 10.4286 12.2863 10.7143 11.8577 10.7143Z" fill="#F2994A"/>
</svg>
