<svg width="119" height="119" viewBox="0 0 119 119" fill="none" xmlns="http://www.w3.org/2000/svg">
<path d="M114.324 34.2963C114.703 25.4036 108.828 17.4523 100.215 15.2053C78.6159 9.56821 56.6008 6.26429 34.2991 5.31289C25.4056 4.93337 17.4549 10.8091 15.2072 19.4214C9.57031 41.0199 6.26627 63.0358 5.31486 85.3375C4.93535 94.2309 10.811 102.182 19.4233 104.429C41.0219 110.066 63.0378 113.37 85.3402 114.322C94.2337 114.701 102.184 108.825 104.431 100.212C110.068 78.6139 113.372 56.5988 114.324 34.2963Z" fill="url(#paint0_radial_562_3837)"/>
<path d="M108.184 37.1721C108.521 29.2811 103.308 22.2256 95.665 20.2307C76.4988 15.2294 56.9627 12.2975 37.1726 11.4524C29.2815 11.116 22.2259 16.3302 20.2311 23.9725C15.2298 43.1388 12.298 62.6749 11.453 82.4641C11.1165 90.356 16.3307 97.4116 23.973 99.4056C43.1392 104.408 62.6753 107.34 82.4647 108.184C90.3565 108.521 97.412 103.307 99.4062 95.6637C104.408 76.4983 107.34 56.9622 108.184 37.1721Z" fill="url(#paint1_linear_562_3837)"/>
<path d="M5.41406 83.1758C5.37807 83.8958 5.34442 84.6161 5.31391 85.3369C4.93451 94.2296 10.8102 102.18 19.4233 104.428C41.0218 110.065 63.0377 113.369 85.3394 114.32C94.2329 114.7 102.183 108.824 104.43 100.212C104.613 99.5138 104.792 98.8153 104.97 98.1166L5.41406 83.1758Z" fill="url(#paint2_linear_562_3837)"/>
<path d="M104.431 100.212C107.46 88.6063 109.814 76.8802 111.493 65.0544L91.5543 38.0748C89.1256 34.2891 85.1583 31.5584 80.1554 30.6227C69.867 28.6975 59.4869 27.159 49.0876 25.9618C40.4505 24.9682 33.5749 29.8419 30.76 38.0992C30.2634 39.5572 29.8727 41.051 29.4324 42.5285L25.6976 67.4141C25.6948 68.2384 25.7482 69.0671 25.6805 69.8864C25.2502 75.1012 26.7084 79.8421 29.6569 83.3439L49.9468 110.798C61.6498 112.639 73.4534 113.814 85.3398 114.321C94.2333 114.701 102.183 108.825 104.431 100.212Z" fill="url(#paint3_linear_562_3837)"/>
<path d="M104.431 100.212C102.184 108.824 94.2319 114.701 85.3402 114.321C73.4555 113.813 61.6494 112.638 49.9479 110.798L29.6888 83.384C32.089 86.2174 35.4698 88.2308 39.6259 89.0155C49.9112 90.9562 60.2923 92.5037 70.6918 93.6833C80.098 94.7491 87.907 88.8409 89.6031 79.5293C91.4055 69.6428 92.9001 59.6837 94.0792 49.7037C94.5938 45.3678 93.6486 41.3428 91.5679 38.0922L111.494 65.0547C109.814 76.8787 107.46 88.6063 104.431 100.212Z" fill="url(#paint4_linear_562_3837)"/>
<path d="M73.597 50.5198C71.0829 46.7966 67.079 44.0964 62.2862 43.3772C53.2079 42.0148 44.7431 48.2704 43.3806 57.3487C42.6614 62.1415 44.0673 66.7616 46.8885 70.2579L79.2138 113.999C81.2532 114.126 83.2956 114.233 85.3394 114.32C94.2328 114.7 102.184 108.824 104.431 100.211C104.948 98.2315 105.445 96.2476 105.922 94.2608L73.597 50.5198Z" fill="url(#paint5_linear_562_3837)"/>
<path d="M109.276 78.5437L83.2604 43.3413C82.6869 42.2969 81.653 41.5196 80.3838 41.3292C78.2242 41.0051 76.2099 42.493 75.8857 44.6533C75.6952 45.9226 76.1347 47.1391 76.9648 47.9938L107.168 88.8638C107.929 85.4336 108.632 81.9931 109.276 78.5437Z" fill="url(#paint6_linear_562_3837)"/>
<path d="M29.4324 42.5285C29.8727 41.051 30.2634 39.5572 30.76 38.0992C33.5741 29.8418 40.4505 24.9682 49.0876 25.9618C59.4869 27.1589 69.867 28.6975 80.1554 30.6227C89.4571 32.3629 95.1909 40.3043 94.0789 49.7035C92.8989 59.6842 91.4044 69.6426 89.6027 79.53C87.9066 88.8415 80.0968 94.7496 70.6923 93.6833C60.2919 92.5043 49.9109 90.956 39.6257 89.0153C30.3246 87.26 24.9001 79.349 25.6806 69.8856C25.7482 69.0671 25.695 68.2376 25.6978 67.4134C26.9427 59.1182 28.1876 50.823 29.4324 42.5285ZM55.9284 85.7982C60.6625 86.5087 65.38 87.3616 70.134 87.8965C77.588 88.7341 82.8114 84.9944 84.0959 77.6146C85.6953 68.4191 87.082 59.1788 88.2525 49.918C89.1906 42.4879 85.3074 37.2758 77.9214 36.0064C68.5466 34.3961 59.1314 32.9847 49.6971 31.7706C42.3207 30.8214 37.0822 34.5708 35.7836 41.8636C34.1275 51.17 32.7227 60.5308 31.574 69.9134C30.6748 77.2652 34.5973 82.2847 41.9104 83.6608C46.5527 84.5353 51.2539 85.0967 55.9284 85.7982Z" fill="url(#paint7_linear_562_3837)"/>
<path d="M29.4324 42.5285C29.8727 41.051 30.2634 39.5572 30.76 38.0992C33.5741 29.8418 40.4505 24.9682 49.0876 25.9618C59.4869 27.1589 69.867 28.6975 80.1554 30.6227C89.4571 32.3629 95.1909 40.3043 94.0789 49.7035C92.8989 59.6842 91.4044 69.6426 89.6027 79.53C87.9066 88.8415 80.0968 94.7496 70.6923 93.6833C60.2919 92.5043 49.9109 90.956 39.6257 89.0153C30.3246 87.26 24.9001 79.349 25.6806 69.8856C25.7482 69.0671 25.695 68.2376 25.6978 67.4134C26.9427 59.1182 28.1876 50.823 29.4324 42.5285ZM55.9284 85.7982C60.6625 86.5087 65.38 87.3616 70.134 87.8965C77.588 88.7341 82.8114 84.9944 84.0959 77.6146C85.6953 68.4191 87.082 59.1788 88.2525 49.918C89.1906 42.4879 85.3074 37.2758 77.9214 36.0064C68.5466 34.3961 59.1314 32.9847 49.6971 31.7706C42.3207 30.8214 37.0822 34.5708 35.7836 41.8636C34.1275 51.17 32.7227 60.5308 31.574 69.9134C30.6748 77.2652 34.5973 82.2847 41.9104 83.6608C46.5527 84.5353 51.2539 85.0967 55.9284 85.7982Z" fill="white"/>
<path d="M62.2862 43.3811C53.2079 42.0187 44.7432 48.2736 43.3808 57.3518C42.0182 66.4308 48.274 74.8949 57.3523 76.2573C66.4313 77.6198 74.8952 71.3648 76.2578 62.2858C77.6202 53.2076 71.3652 44.7436 62.2862 43.3811ZM58.2016 70.5977C52.2484 69.7043 48.1469 64.1544 49.0404 58.2012C49.9338 52.2479 55.4837 48.1465 61.4369 49.0399C67.3901 49.9333 71.4916 55.4832 70.5982 61.4364C69.7048 67.3897 64.1548 71.4911 58.2016 70.5977Z" fill="white"/>
<path d="M83.7072 45.8271C83.3831 47.9867 81.3695 49.4747 79.21 49.1506C77.0504 48.8265 75.5616 46.8129 75.8857 44.6533C76.2099 42.493 78.2242 41.0051 80.3838 41.3292C82.5433 41.6532 84.0314 43.6668 83.7072 45.8271Z" fill="white"/>
<defs>
<radialGradient id="paint0_radial_562_3837" cx="0" cy="0" r="1" gradientUnits="userSpaceOnUse" gradientTransform="translate(23.7834 93.6492) rotate(8.53498) scale(114.451)">
<stop stop-color="#FAE100"/>
<stop offset="0.0544" stop-color="#FADC04"/>
<stop offset="0.1167" stop-color="#FBCE0E"/>
<stop offset="0.1829" stop-color="#FCB720"/>
<stop offset="0.2514" stop-color="#FE9838"/>
<stop offset="0.3054" stop-color="#FF7950"/>
<stop offset="0.4922" stop-color="#FF1C74"/>
<stop offset="1" stop-color="#6C1CD1"/>
</radialGradient>
<linearGradient id="paint1_linear_562_3837" x1="48.8756" y1="51.3016" x2="-110.315" y2="-72.5928" gradientUnits="userSpaceOnUse">
<stop stop-color="#A1B5D8" stop-opacity="0"/>
<stop offset="0.3094" stop-color="#90A2BD" stop-opacity="0.309804"/>
<stop offset="0.7554" stop-color="#7C8B9C" stop-opacity="0.756863"/>
<stop offset="1" stop-color="#748290"/>
</linearGradient>
<linearGradient id="paint2_linear_562_3837" x1="53.9233" y1="99.0974" x2="51.5225" y2="115.095" gradientUnits="userSpaceOnUse">
<stop stop-color="#FAE100" stop-opacity="0"/>
<stop offset="0.3068" stop-color="#FCA800" stop-opacity="0.305882"/>
<stop offset="0.6275" stop-color="#FE7300" stop-opacity="0.627451"/>
<stop offset="0.8685" stop-color="#FF5200" stop-opacity="0.866667"/>
<stop offset="1" stop-color="#FF4500"/>
</linearGradient>
<linearGradient id="paint3_linear_562_3837" x1="54.8782" y1="52.9566" x2="33.2906" y2="23.7453" gradientUnits="userSpaceOnUse">
<stop stop-color="#833AB4" stop-opacity="0"/>
<stop offset="1" stop-color="#833AB4"/>
</linearGradient>
<linearGradient id="paint4_linear_562_3837" x1="72.4557" y1="105.224" x2="68.7475" y2="43.5571" gradientUnits="userSpaceOnUse">
<stop stop-color="#833AB4" stop-opacity="0"/>
<stop offset="1" stop-color="#833AB4"/>
</linearGradient>
<linearGradient id="paint5_linear_562_3837" x1="80.087" y1="87.2411" x2="36.8095" y2="28.6801" gradientUnits="userSpaceOnUse">
<stop stop-color="#833AB4" stop-opacity="0"/>
<stop offset="1" stop-color="#833AB4"/>
</linearGradient>
<linearGradient id="paint6_linear_562_3837" x1="88.4873" y1="56.9996" x2="74.1762" y2="37.6346" gradientUnits="userSpaceOnUse">
<stop stop-color="#833AB4" stop-opacity="0"/>
<stop offset="1" stop-color="#833AB4"/>
</linearGradient>
<linearGradient id="paint7_linear_562_3837" x1="83.2331" y1="42.6392" x2="35.4861" y2="77.9251" gradientUnits="userSpaceOnUse">
<stop stop-color="#833AB4"/>
<stop offset="0.0922" stop-color="#9C3495"/>
<stop offset="0.2927" stop-color="#DC2546"/>
<stop offset="0.392" stop-color="#FD1D1D"/>
<stop offset="0.5589" stop-color="#FC6831"/>
<stop offset="0.6887" stop-color="#FC9B40"/>
<stop offset="0.7521" stop-color="#FCAF45"/>
<stop offset="0.7806" stop-color="#FDB750"/>
<stop offset="0.8656" stop-color="#FECB6A"/>
<stop offset="0.9415" stop-color="#FFD87A"/>
<stop offset="1" stop-color="#FFDC80"/>
</linearGradient>
</defs>
</svg>
