<svg width="48" height="48" viewBox="0 0 48 48" fill="none" xmlns="http://www.w3.org/2000/svg">
<rect width="48" height="48" rx="24" fill="#131313"/>
<path d="M17.9958 35.127C17.9685 35.0658 17.9462 35.0024 17.9293 34.9375L16.0059 34.5742C16.0422 35.3672 16.751 35.9992 17.6234 35.9991L18.9232 35.9988L18.9092 35.8098C18.7126 35.7799 18.5263 35.702 18.367 35.5829C18.2076 35.4638 18.0802 35.3072 17.9958 35.127Z" fill="#F2994A"/>
<path d="M20.2141 34.1703L24.8394 33.6751C24.85 33.6628 24.8623 33.652 24.8738 33.6403L22.9155 29.0703C22.903 29.0768 22.8926 29.0857 22.8798 29.0916C22.7705 29.1418 22.653 29.1719 22.5329 29.1803L20.0586 33.8833C20.1095 33.9505 20.1532 34.0228 20.1891 34.099C20.2 34.1224 20.2048 34.1467 20.2141 34.1703Z" fill="#F2994A"/>
<path d="M20.2633 34.8974C20.2227 35.069 20.1448 35.2296 20.0352 35.3677C19.9255 35.5059 19.7868 35.6182 19.6289 35.6967L19.6513 35.9999L23.3632 35.9993L24.5946 34.4336L20.2633 34.8974Z" fill="#F2994A"/>
<path d="M30.8835 19.0872L29.1221 19.0875L29.1213 14.5749C29.1213 13.7064 28.485 12.9998 27.7032 13L20.5278 13.0012C19.746 13.0012 19.1101 13.7081 19.1103 14.5766L19.1111 19.0892L17.6202 19.0895C16.7246 19.0895 15.9996 19.7553 16 20.5779L16.0011 27.0599C16.1756 27.0801 16.3437 27.138 16.4937 27.2295C16.6437 27.3211 16.7721 27.4441 16.8698 27.5902L21.5194 27.8232C21.6098 27.5852 21.7877 27.3907 22.0167 27.2794C22.2457 27.168 22.5086 27.1483 22.7516 27.2241C22.9947 27.3 23.1996 27.4657 23.3247 27.6875C23.4497 27.9093 23.4854 28.1705 23.4244 28.4177L25.582 33.4529C25.674 33.478 25.7601 33.521 25.8354 33.5795C25.9107 33.6379 25.9737 33.7107 26.0208 33.7936C26.0679 33.8765 26.0981 33.9679 26.1098 34.0625C26.1214 34.1571 26.1142 34.2531 26.0887 34.345C26.0631 34.4368 26.0196 34.5227 25.9607 34.5976C25.9018 34.6726 25.8287 34.7352 25.7455 34.7818C25.6624 34.8285 25.5708 34.8582 25.4761 34.8693C25.3815 34.8804 25.2855 34.8727 25.1938 34.8466L24.2875 35.9988L30.8865 35.9977C31.7821 35.9977 32.5072 35.3318 32.5068 34.5093L32.5044 20.5753C32.5043 19.7525 31.7791 19.0868 30.8835 19.0872ZM20.1925 14.5767C20.1925 14.2862 20.3694 14.0838 20.5281 14.0838L27.7034 14.0825C27.8621 14.0825 28.039 14.2849 28.039 14.5754L28.0398 19.088H26.6869L26.6874 21.3417C26.6876 21.412 26.6669 21.4808 26.628 21.5394C26.589 21.5979 26.5336 21.6435 26.4686 21.6705C26.4037 21.6975 26.3322 21.7046 26.2633 21.6908C26.1943 21.6771 26.131 21.6432 26.0813 21.5935L23.5754 19.0885L20.1933 19.089L20.1925 14.5767Z" fill="#F2994A"/>
<path d="M21.5433 28.6111C21.5341 28.5916 21.53 28.5711 21.522 28.5512L17.0692 28.3281C17.0537 28.6192 16.9334 28.8948 16.7305 29.1041L18.8188 33.4362C19.0301 33.3882 19.2506 33.3982 19.4567 33.4651L21.8247 28.9642C21.705 28.8697 21.6087 28.7489 21.5433 28.6111Z" fill="#F2994A"/>
<path d="M18.1904 33.8032L16.0897 29.4453C16.0599 29.4509 16.0299 29.4536 16 29.457L16.0007 33.834L17.9518 34.2025C18.0048 34.0553 18.0858 33.9197 18.1904 33.8032Z" fill="#F2994A"/>
</svg>
