<svg width="73" height="102" viewBox="0 0 73 102" fill="none" xmlns="http://www.w3.org/2000/svg">
<path d="M8.8259 97.8588C8.70481 97.588 8.60642 97.3076 8.53176 97.0205L0.0253906 95.4141C0.186083 98.9209 3.32054 101.716 7.1788 101.715L12.9271 101.714L12.8653 100.878C11.9956 100.746 11.1719 100.401 10.4673 99.8747C9.76264 99.348 9.19886 98.6555 8.8259 97.8588Z" fill="#F2994A"/>
<path d="M18.633 93.6324L39.0881 91.4424C39.1351 91.3881 39.1892 91.3402 39.2401 91.2887L30.5799 71.0781C30.5247 71.1068 30.4786 71.146 30.422 71.1721C29.9385 71.3945 29.4188 71.5274 28.8879 71.5644L17.9453 92.3633C18.1704 92.6603 18.3638 92.98 18.5225 93.3171C18.5707 93.4205 18.5918 93.5281 18.633 93.6324Z" fill="#F2994A"/>
<path d="M18.8546 96.84C18.6749 97.599 18.3304 98.3092 17.8455 98.9202C17.3606 99.5311 16.7472 100.028 16.0488 100.375L16.1477 101.716L32.5633 101.713L38.0092 94.7891L18.8546 96.84Z" fill="#F2994A"/>
<path d="M65.821 26.9202L58.0314 26.9216L58.0281 6.965C58.0281 3.12412 55.2141 -0.000704673 51.7566 1.19199e-07L20.0241 0.00540593C16.5664 0.00540593 13.7542 3.13163 13.7549 6.97251L13.7585 26.9292L7.16539 26.9304C3.20469 26.9304 -0.00164388 29.875 6.32315e-07 33.5126L0.0046895 62.1789C0.776715 62.2682 1.52012 62.5242 2.18349 62.9291C2.84686 63.334 3.41436 63.8782 3.84675 64.524L24.4091 65.5546C24.8091 64.502 25.5958 63.6418 26.6085 63.1494C27.6212 62.657 28.7836 62.5697 29.8585 62.9051C30.9335 63.2406 31.8399 63.9735 32.3928 64.9545C32.9457 65.9354 33.1035 67.0904 32.8339 68.1837L42.3756 90.4516C42.7824 90.5625 43.1633 90.7526 43.4963 91.0112C43.8293 91.2697 44.108 91.5915 44.3162 91.9581C44.5244 92.3247 44.6582 92.7289 44.7097 93.1473C44.7612 93.5658 44.7294 93.9903 44.6163 94.3965C44.5032 94.8026 44.3109 95.1824 44.0505 95.514C43.7901 95.8456 43.4667 96.1224 43.099 96.3286C42.7312 96.5348 42.3263 96.6662 41.9076 96.7154C41.4888 96.7645 41.0645 96.7304 40.659 96.615L36.6511 101.711L65.8346 101.706C69.7953 101.706 73.0016 98.7609 73 95.1234L72.9897 33.5011C72.989 29.8625 69.7817 26.9186 65.821 26.9202ZM18.5412 6.97299C18.5412 5.68815 19.3233 4.79282 20.025 4.79282L51.7574 4.78742C52.4591 4.78742 53.2416 5.68227 53.2416 6.96711L53.2452 26.9235H47.2622L47.264 36.8907C47.265 37.2016 47.1735 37.5058 47.0013 37.7647C46.8291 38.0235 46.5839 38.2254 46.2968 38.3447C46.0096 38.464 45.6936 38.4953 45.3886 38.4346C45.0837 38.374 44.8036 38.2241 44.584 38.004L33.5018 26.9259L18.5447 26.9282L18.5412 6.97299Z" fill="#F2994A"/>
<path d="M24.5186 69.0327C24.478 68.9463 24.4601 68.8558 24.4247 68.768L4.73253 67.7812C4.6639 69.0685 4.13174 70.2874 3.23438 71.2129L12.4697 90.3712C13.4045 90.159 14.3793 90.2031 15.291 90.4991L25.7633 70.5943C25.2339 70.1764 24.808 69.642 24.5186 69.0327Z" fill="#F2994A"/>
<path d="M9.69275 92.0028L0.402649 72.7305C0.270618 72.7554 0.138125 72.7671 0.00585938 72.7822L0.00914301 92.1393L8.63768 93.769C8.87206 93.1177 9.23034 92.5179 9.69275 92.0028Z" fill="#F2994A"/>
</svg>
