<svg width="23" height="16" viewBox="0 0 23 16" fill="none" xmlns="http://www.w3.org/2000/svg">
<path d="M17.6 16H4.8C2.16 16 0 13.84 0 11.2V4.8C0 2.16 2.16 0 4.8 0H17.6C20.24 0 22.4 2.16 22.4 4.8V11.2C22.4 13.84 20.24 16 17.6 16ZM4.8 1.6C3.04 1.6 1.6 3.04 1.6 4.8V11.2C1.6 12.96 3.04 14.4 4.8 14.4H17.6C19.36 14.4 20.8 12.96 20.8 11.2V4.8C20.8 3.04 19.36 1.6 17.6 1.6H4.8Z" fill="#F2994A"/>
<path d="M11.1995 8.8C10.2395 8.8 9.27953 8.48 8.47953 7.92L1.51953 3.12C1.11953 2.88 1.03953 2.4 1.27953 2C1.51953 1.6 2.07953 1.52 2.39953 1.76L9.35953 6.56C10.4795 7.28 11.9195 7.28 13.0395 6.56L19.9995 1.76C20.3995 1.52 20.8795 1.6 21.1195 2C21.3595 2.4 21.2795 2.88 20.8795 3.12L13.9195 7.92C13.1195 8.48 12.1595 8.8 11.1995 8.8Z" fill="#F2994A"/>
</svg>
