<svg width="13" height="20" viewBox="0 0 13 20" fill="none" xmlns="http://www.w3.org/2000/svg">
<path d="M1.875 20H10.625C11.1223 20 11.5992 19.8025 11.9508 19.4508C12.3025 19.0992 12.5 18.6223 12.5 18.125V1.875C12.5 1.37772 12.3025 0.900805 11.9508 0.549175C11.5992 0.197544 11.1223 0 10.625 0L1.875 0C1.37772 0 0.900806 0.197544 0.549175 0.549175C0.197544 0.900805 0 1.37772 0 1.875V18.125C0 18.6223 0.197544 19.0992 0.549175 19.4508C0.900806 19.8025 1.37772 20 1.875 20ZM4.4 1.25H8.1V1.5625H4.4V1.25ZM1.25 1.875C1.25 1.70924 1.31585 1.55027 1.43306 1.43306C1.55027 1.31585 1.70924 1.25 1.875 1.25H3.15V2.1875C3.15 2.35326 3.21585 2.51223 3.33306 2.62944C3.45027 2.74665 3.60924 2.8125 3.775 2.8125H8.725C8.89076 2.8125 9.04973 2.74665 9.16694 2.62944C9.28415 2.51223 9.35 2.35326 9.35 2.1875V1.25H10.625C10.7908 1.25 10.9497 1.31585 11.0669 1.43306C11.1842 1.55027 11.25 1.70924 11.25 1.875V18.125C11.25 18.2908 11.1842 18.4497 11.0669 18.5669C10.9497 18.6842 10.7908 18.75 10.625 18.75H1.875C1.70924 18.75 1.55027 18.6842 1.43306 18.5669C1.31585 18.4497 1.25 18.2908 1.25 18.125V1.875Z" fill="#F2994A"/>
</svg>
