<svg width="92" height="92" viewBox="0 0 92 92" fill="none" xmlns="http://www.w3.org/2000/svg">
<path d="M59.9153 86.7859C43.9641 84.417 28.3954 80.3793 13.3035 74.6972C7.28568 72.4315 3.66498 66.2752 4.60972 59.9142C6.97856 43.9629 11.0161 28.3949 16.6982 13.3029C18.9639 7.2851 25.1203 3.6644 31.4807 4.60899C47.4319 6.97784 63 11.0154 78.092 16.6975C84.1103 18.9633 87.731 25.1197 86.7865 31.4801C84.4176 47.4314 80.3801 62.9995 74.6979 78.0914C72.4321 84.1098 66.2763 87.7306 59.9153 86.7859Z" fill="url(#paint0_linear_562_3644)"/>
<path d="M82.1587 33.0829C82.9972 27.4389 79.7847 21.9758 74.4442 19.965C61.0517 14.9233 47.2371 11.3406 33.0825 9.2379C27.4383 8.39991 21.9751 11.613 19.9644 16.9529C14.9227 30.3454 11.34 44.16 9.23746 58.3141C8.39933 63.9588 11.6124 69.422 16.9525 71.4322C30.3448 76.4744 44.1594 80.0571 58.3137 82.1591C63.9582 82.9978 69.4214 79.7847 71.4317 74.444C76.4738 61.0523 80.0566 47.2377 82.1587 33.0829Z" fill="url(#paint1_linear_562_3644)"/>
<path d="M4.8457 58.3711C4.76544 58.8857 4.68683 59.4007 4.61044 59.9162C3.66585 66.2767 7.28654 72.433 13.3049 74.6989C28.3969 80.381 43.9649 84.4185 59.9162 86.7874C66.2772 87.7321 72.433 84.1113 74.6987 78.0934C74.8825 77.6057 75.0641 77.1174 75.2445 76.6289L4.8457 58.3711Z" fill="url(#paint2_linear_562_3644)"/>
<path d="M74.697 78.0929C76.5976 73.0452 78.3129 67.9442 79.8445 62.7932L60.4799 29.8672C58.0515 25.2705 53.5697 23.7353 51.9933 23.3265L51.9911 23.3259C51.9502 23.3153 51.9114 23.3052 51.8742 23.2961C51.8742 23.2961 51.1053 23.105 51.0444 23.0892C49.0699 22.5771 42.236 21.3916 37.2432 27.6506C35.5642 29.7567 34.7695 33.8668 34.131 37.1694C34.0555 37.5587 33.9783 37.9636 33.9002 38.3534C33.7135 38.4013 33.3857 38.4369 32.9162 38.3151C32.2894 38.1525 31.6005 37.7623 30.8679 37.1557C30.6734 36.9942 30.4315 36.8765 30.1497 36.8034C29.173 36.5501 27.8387 36.8895 27.4083 37.7996C27.1819 38.2781 27.1473 38.9859 27.9169 39.8964C28.0094 40.1869 30.9845 45.2598 31.2188 45.5617C30.5246 46.4134 26.0285 51.5845 19.6673 51.0073C19.1454 50.96 18.6726 51.3131 18.5691 51.8263C18.5383 51.9791 18.5354 52.1385 18.5592 52.2995C18.6164 52.676 18.8198 53.0608 19.1701 53.4578L35.8863 81.88C43.7882 83.9447 51.8013 85.5827 59.9138 86.7872C66.2754 87.7321 72.4312 84.1113 74.697 78.0929Z" fill="url(#paint3_linear_562_3644)"/>
<path d="M40.2894 67.7689C40.1687 67.7376 40.0506 67.7034 39.9336 67.6666L39.9331 67.6664C39.8562 67.653 39.7762 67.6358 39.697 67.6152C36.9202 66.8951 35.4652 65.1733 34.0576 63.5077C33.0857 62.3586 32.1687 61.2734 30.9031 60.7099C30.2852 60.4356 29.6565 60.2147 29.0352 60.0535C27.9168 59.7635 26.9894 59.7073 26.3122 59.6664C25.9009 59.6413 25.5455 59.6195 25.2891 59.553C25.0211 59.4835 24.7455 59.3499 24.7312 58.8859C24.718 58.483 24.7328 58.1004 24.7471 57.7306C24.7845 56.7777 24.7881 56.1871 24.4256 56.031C20.1979 54.2089 19.1784 52.9541 19.0677 52.2234C19.0522 52.1189 19.0539 52.0189 19.0732 51.924C19.1245 51.6673 19.3612 51.4905 19.6221 51.5144C26.6805 52.1555 31.5108 46.0239 31.7133 45.7627C31.7188 45.7552 31.7247 45.7485 31.7301 45.741C32.3626 45.0092 32.6325 44.3009 32.5337 43.6383C32.3532 42.4226 30.9631 41.5486 30.0424 40.97C29.8172 40.8289 29.6038 40.6949 29.4386 40.5753C27.6428 39.2651 27.6868 38.4096 27.8728 38.0158C28.1897 37.3452 29.2602 37.0981 30.0221 37.2957C30.2314 37.3499 30.4056 37.4347 30.5418 37.5474C31.3327 38.2028 32.0884 38.6269 32.7888 38.8086C33.7561 39.0595 34.2836 38.7619 34.3494 38.7223C34.4434 38.2573 34.537 37.7711 34.6341 37.2691C35.2625 34.0165 36.0437 29.9745 37.6452 27.967C42.4448 21.9492 49.0178 23.0902 50.9175 23.5829C50.9663 23.5955 51.7531 23.7901 51.7531 23.7901L51.8657 23.8187C53.7704 24.3127 60.0829 26.5153 61.3536 34.111C61.7771 36.6454 60.4947 40.5604 59.4632 43.7061L59.4188 43.843C59.275 44.2814 59.1356 44.7073 59.0055 45.1156C59.0414 45.1775 59.3325 45.6524 60.2009 45.9131L60.202 45.9134C60.8753 46.0608 61.6961 46.0468 62.6387 45.8711C62.9154 45.8206 63.1953 45.8671 63.3813 45.9154C63.6659 45.9892 63.9401 46.1188 64.1533 46.2811L64.1663 46.2903C64.7836 46.7081 65.1059 47.2999 64.986 47.8006C64.8734 48.2713 64.3328 48.884 62.3965 49.1223C62.1959 49.1464 61.9442 49.1598 61.6774 49.1745C60.591 49.2325 58.9515 49.3202 58.2036 50.2945C57.7945 50.8261 57.6871 51.5753 57.8833 52.5232C57.8851 52.5319 57.887 52.5407 57.888 52.5504C57.9381 52.8766 59.1773 60.5805 65.6605 63.4532C65.8996 63.559 66.0206 63.8285 65.9411 64.0779C65.9109 64.1717 65.8629 64.2609 65.7984 64.3435C65.3499 64.9244 63.85 65.5241 59.2677 65.0625C58.8941 65.0241 58.6329 65.4569 58.1629 66.3851C57.9915 66.7224 57.8217 67.0536 57.6167 67.3952C57.44 67.6915 57.2012 67.7897 56.8646 67.7024L56.8098 67.6882C56.5767 67.6277 56.2552 67.5 55.8565 67.308C55.1485 66.9689 54.3467 66.6174 53.2831 66.3416C52.6618 66.1805 52.0049 66.068 51.3311 66.0073C49.9523 65.8849 48.6244 66.3861 47.2189 66.9181C45.1758 67.6918 43.0667 68.4892 40.2894 67.7689Z" fill="white"/>
<path d="M51.736 24.3187C53.5387 24.7868 59.6224 26.8805 60.8473 34.1995C61.2501 36.6086 59.9888 40.4582 58.9752 43.5506C58.8144 44.0407 58.6587 44.5157 58.5145 44.9717L58.452 45.167L58.5465 45.3493C58.5842 45.4229 58.9496 46.0761 60.0519 46.4081L60.0705 46.4135L60.0889 46.4177C60.8325 46.581 61.7213 46.5674 62.7322 46.3787C62.8807 46.351 63.065 46.367 63.2516 46.4153C63.4648 46.4706 63.6804 46.5691 63.8466 46.6961L63.8719 46.7145C64.3013 47.0025 64.5542 47.4014 64.487 47.6854C64.4476 47.8465 64.1791 48.3897 62.3331 48.6171C62.1524 48.6394 61.9194 48.6516 61.6492 48.666C60.4703 48.7296 58.6888 48.8248 57.7962 49.9856C57.2928 50.6416 57.1525 51.5312 57.3802 52.6309C57.4587 53.144 58.751 60.9574 65.4516 63.9261C65.441 63.9577 65.4237 63.9927 65.3938 64.0305C65.2022 64.2792 64.198 65.0482 59.3187 64.5557C58.5545 64.4787 58.1613 65.2542 57.7045 66.1569C57.541 66.4797 57.3744 66.8052 57.1759 67.1355C57.1163 67.2352 57.1085 67.2403 56.9922 67.2101C56.9762 67.206 56.9585 67.2014 56.9374 67.1959C56.7292 67.1419 56.4243 67.0168 56.0764 66.8497C55.4452 66.5471 54.5746 66.1512 53.4107 65.8493C52.7607 65.6807 52.0761 65.5635 51.3762 65.5007C49.8784 65.3676 48.4959 65.8907 47.0323 66.4436C45.0673 67.1873 43.0362 67.9553 40.4172 67.2761C40.3032 67.2465 40.1922 67.2142 40.0818 67.1796L40.0529 67.1703L40.0223 67.1654C39.9566 67.1542 39.8912 67.1397 39.8248 67.1224C37.2064 66.4433 35.8035 64.7848 34.4479 63.1804C33.4383 61.9855 32.4837 60.8563 31.1106 60.2449C30.4678 59.9594 29.8131 59.7293 29.163 59.5607C27.9992 59.2589 27.0411 59.2001 26.3419 59.1576C25.9572 59.1347 25.6247 59.1135 25.4171 59.0596C25.2471 59.0155 25.2462 59.0052 25.2421 58.873C25.2297 58.488 25.2446 58.1137 25.2585 57.7527C25.298 56.7412 25.3315 55.8671 24.6273 55.5633C20.1231 53.6222 19.6204 52.4595 19.5738 52.1495C19.5661 52.1015 19.5681 52.0618 19.575 52.0287C26.8733 52.6906 31.7997 46.4912 32.1174 46.0796C32.8518 45.2282 33.1619 44.3833 33.0405 43.5664C32.8254 42.1172 31.3141 41.168 30.3144 40.5388C30.085 40.3954 29.8873 40.2715 29.7404 40.1636C28.4706 39.2381 28.1818 38.5628 28.3356 38.2387C28.5125 37.8644 29.2977 37.6414 29.8929 37.7958C30.0269 37.8305 30.1382 37.8824 30.2141 37.9452C31.0635 38.6483 31.8863 39.1075 32.6593 39.308C33.8757 39.6235 34.5647 39.1976 34.6389 39.1483L34.8089 39.0352L34.8491 38.8347C34.9444 38.3672 35.0391 37.8764 35.1368 37.3699C35.7539 34.1747 36.5222 30.2008 38.0454 28.29C42.655 22.5101 48.9643 23.6087 50.7887 24.0819C50.8336 24.0935 51.6285 24.2914 51.6285 24.2914C51.6622 24.3001 51.6978 24.3088 51.736 24.3187ZM51.9933 23.3265L51.9911 23.3259C51.9502 23.3153 51.9114 23.3052 51.8742 23.2961C51.8742 23.2961 51.1053 23.105 51.0444 23.0892C49.0699 22.5771 42.236 21.3916 37.2431 27.6511C35.5642 29.7567 34.7695 33.8668 34.131 37.1694C34.0553 37.5593 33.9783 37.9636 33.9002 38.3534C33.7133 38.4019 33.3857 38.4369 32.9162 38.3151C32.2894 38.1525 31.6004 37.7629 30.8679 37.1557C30.6733 36.9947 30.4315 36.8765 30.1497 36.8034C29.173 36.5501 27.8387 36.8895 27.4081 37.8002C27.0981 38.4555 27.1462 39.5417 29.1355 40.9919C29.3154 41.123 29.5359 41.2618 29.7693 41.408C30.6097 41.9361 31.88 42.7342 32.0259 43.7164C32.1014 44.2252 31.8708 44.7954 31.341 45.4096C31.3296 45.4238 31.3177 45.4379 31.3063 45.452C31.111 45.7039 26.4494 51.6228 19.6674 51.0068C19.1455 50.9594 18.6726 51.3131 18.5691 51.8263C18.5383 51.9791 18.5354 52.1385 18.5592 52.2995C18.7511 53.5672 20.5938 54.938 24.1925 56.4923C24.2737 56.6942 24.2486 57.3265 24.2342 57.7122C24.219 58.0924 24.2036 58.4843 24.2171 58.9062C24.2302 59.3203 24.4044 59.8565 25.159 60.0522C25.4641 60.1314 25.8423 60.1544 26.2799 60.1804C26.936 60.2206 27.8349 60.2752 28.9057 60.5529C29.4993 60.7069 30.1016 60.9181 30.6945 61.1817C31.852 61.697 32.6918 62.6901 33.664 63.8405C35.0562 65.488 36.6329 67.3536 39.5675 68.1146C39.6478 68.1355 39.7299 68.1538 39.8112 68.1684C39.9058 68.1977 40.0281 68.2341 40.1594 68.2681C43.095 69.0295 45.3792 68.1652 47.3953 67.4023C48.8071 66.869 50.0226 66.4089 51.2845 66.5217C51.9302 66.5793 52.5593 66.6875 53.1534 66.8415C54.175 67.1065 54.9491 67.4461 55.634 67.7738C56.0629 67.9796 56.4145 68.1187 56.6802 68.1876L56.7078 68.1953L56.7349 68.2024C57.2919 68.3468 57.762 68.1543 58.0563 67.6598C58.2692 67.3061 58.4438 66.9655 58.6184 66.6202C58.7925 66.2771 59.0767 65.7144 59.2455 65.5785C63.1467 65.9686 65.4224 65.6677 66.2043 64.6579C66.3047 64.5285 66.3799 64.3867 66.4281 64.2373C66.5876 63.7385 66.3455 63.2 65.8669 62.9879C59.6375 60.2277 58.4418 52.7915 58.3935 52.4765C58.391 52.4587 58.388 52.4407 58.3839 52.4225C58.2194 51.6282 58.2953 51.0186 58.6086 50.6105C59.2134 49.8231 60.7111 49.7423 61.7022 49.6897C61.9791 49.6746 62.2398 49.6607 62.4582 49.634C64.2467 49.4141 65.2648 48.8379 65.4839 47.9226C65.6557 47.2031 65.2637 46.4201 64.4598 45.8742L64.4573 45.8724C64.1914 45.6716 63.8552 45.5123 63.5085 45.4224C63.2721 45.3611 62.9122 45.302 62.5446 45.3704C61.679 45.5318 60.9343 45.5484 60.3298 45.4206C59.9383 45.299 59.7044 45.132 59.5777 45.0122C59.6815 44.687 59.7912 44.3532 59.9054 44.004L59.9494 43.8683C60.9982 40.6697 62.3026 36.6883 61.8581 34.0297C60.5362 26.13 53.9733 23.84 51.9933 23.3265Z" fill="#030303"/>
<defs>
<linearGradient id="paint0_linear_562_3644" x1="40.2717" y1="16.4528" x2="48.4422" y2="60.4863" gradientUnits="userSpaceOnUse">
<stop stop-color="#FFFC00"/>
<stop offset="1" stop-color="#FFE600"/>
</linearGradient>
<linearGradient id="paint1_linear_562_3644" x1="58.9114" y1="57.9129" x2="-31.8588" y2="-25.9941" gradientUnits="userSpaceOnUse">
<stop stop-color="#FFE600" stop-opacity="0"/>
<stop offset="1" stop-color="#FFCE00"/>
</linearGradient>
<linearGradient id="paint2_linear_562_3644" x1="39.0311" y1="71.409" x2="36.5648" y2="80.9185" gradientUnits="userSpaceOnUse">
<stop stop-color="#FFE600" stop-opacity="0"/>
<stop offset="1" stop-color="#FFCE00"/>
</linearGradient>
<linearGradient id="paint3_linear_562_3644" x1="55.6698" y1="82.2527" x2="48.1147" y2="53.4133" gradientUnits="userSpaceOnUse">
<stop stop-color="#FFE600" stop-opacity="0"/>
<stop offset="1" stop-color="#FFCE00"/>
</linearGradient>
</defs>
</svg>
