<svg width="51" height="52" viewBox="0 0 51 52" fill="none" xmlns="http://www.w3.org/2000/svg">
<path d="M43.3972 5.07329C43.3972 5.05887 43.3972 5.05165 43.3972 5.03722C43.3972 5.0228 43.3972 5.00116 43.39 4.97952C43.3828 4.92182 43.3756 4.87133 43.3684 4.82084C43.3612 4.77035 43.3468 4.72707 43.3323 4.67658C43.3251 4.66215 43.3251 4.64773 43.3179 4.64051C43.3179 4.6333 43.3107 4.62609 43.3107 4.61888C43.3035 4.59724 43.2963 4.56839 43.2891 4.54675C43.2746 4.50347 43.2602 4.46741 43.2386 4.42413C43.2242 4.38806 43.2025 4.352 43.1809 4.31593C43.1736 4.30151 43.1665 4.29429 43.1592 4.27987C43.1592 4.27265 43.152 4.27266 43.152 4.26544C43.1448 4.25102 43.1304 4.22938 43.1231 4.21495C43.1015 4.17889 43.0799 4.15004 43.051 4.11397C43.0222 4.08512 43.0006 4.04906 42.9717 4.02021C42.9573 4.00578 42.95 3.99135 42.9356 3.98414L39.322 0.457031C39.4085 0.536373 39.4807 0.637353 39.5456 0.738334C39.5456 0.745547 39.5528 0.752758 39.5528 0.752758C39.6105 0.853738 39.661 0.969146 39.7042 1.09176C39.7042 1.09898 39.7115 1.10619 39.7115 1.1134C39.7475 1.23602 39.7764 1.36586 39.7836 1.51011C39.7836 1.52454 39.7836 1.53176 39.7836 1.54618C39.7908 1.69044 39.7908 1.84912 39.7764 2.00781L38.543 13.8802L42.1566 17.4074L43.39 5.53492C43.3972 5.49164 43.3972 5.44115 43.4045 5.39787C43.4117 5.31853 43.4117 5.23919 43.4045 5.16706C43.4045 5.13821 43.4045 5.10214 43.3972 5.07329Z" fill="url(#paint0_linear_562_3636)"/>
<path d="M14.5168 40.0117L2.32697 42.731C1.90862 42.8248 1.54079 42.8248 1.22342 42.7526C0.92769 42.6805 0.675217 42.5507 0.480469 42.3559L4.09414 45.883C4.28889 46.0706 4.53415 46.2076 4.83709 46.2797C5.15446 46.3519 5.52229 46.3519 5.94064 46.2581L18.1305 43.5388L14.5168 40.0117Z" fill="url(#paint1_linear_562_3636)"/>
<path d="M50.993 24.1094C51.0002 24.0301 51.0002 23.9579 51.0002 23.8858C51.0002 23.8425 50.993 23.8065 50.993 23.7704C50.993 23.7632 50.993 23.756 50.993 23.7488C50.993 23.7343 50.993 23.7199 50.993 23.7055C50.9857 23.6478 50.9785 23.5973 50.9713 23.5396C50.9641 23.4891 50.9497 23.4458 50.9352 23.3953C50.9208 23.3521 50.9064 23.3088 50.892 23.2655C50.8775 23.2366 50.8703 23.2078 50.8559 23.1789C50.8559 23.1789 50.8559 23.1717 50.8487 23.1717C50.8487 23.1645 50.8415 23.1573 50.8415 23.1501C50.827 23.114 50.8054 23.078 50.7838 23.0347C50.7621 22.9986 50.7405 22.9626 50.7189 22.9337C50.6972 22.8976 50.6756 22.8688 50.6467 22.8327C50.6179 22.7967 50.5962 22.7678 50.5602 22.739C50.5457 22.7245 50.5385 22.7101 50.5241 22.7029L46.9104 19.1758C47.0475 19.3128 47.1557 19.4715 47.235 19.6446C47.235 19.6446 47.235 19.6518 47.2422 19.6518C47.3144 19.8249 47.3649 20.0197 47.3793 20.2217C47.3793 20.2289 47.3793 20.2361 47.3793 20.2433C47.3937 20.4453 47.3865 20.6616 47.3504 20.8852V20.8925C47.3144 21.1161 47.2495 21.3469 47.1629 21.5777C47.1341 21.6498 47.098 21.7219 47.0619 21.7941C46.9898 21.96 46.9176 22.1259 46.8239 22.2918C46.8095 22.3134 46.8022 22.3278 46.7878 22.3495C46.658 22.5731 46.5065 22.7967 46.3334 23.0058C46.3262 23.0131 46.3262 23.013 46.319 23.0203C46.1386 23.2439 45.9367 23.453 45.7203 23.6478C45.7131 23.655 45.7131 23.655 45.7059 23.6622C45.4823 23.8642 45.237 24.0517 44.9774 24.2176L32.7227 32.1157L36.3363 35.6428L48.591 27.7447C48.6055 27.7375 48.6127 27.7303 48.6271 27.7231C48.6848 27.687 48.7425 27.6437 48.8002 27.6077C48.8579 27.5716 48.9084 27.5283 48.9661 27.4851C49.0166 27.4418 49.0671 27.4057 49.1176 27.3624C49.1681 27.3192 49.2186 27.2759 49.2691 27.2398C49.2907 27.2254 49.3051 27.2037 49.3268 27.1893C49.334 27.1821 49.334 27.1821 49.3412 27.1749C49.3628 27.1533 49.3917 27.1316 49.4133 27.11C49.4638 27.0667 49.5071 27.0162 49.5504 26.9729C49.6009 26.9224 49.6441 26.8792 49.6874 26.8287C49.7379 26.7782 49.7812 26.7277 49.8245 26.67C49.8605 26.6267 49.8966 26.5834 49.9254 26.5474C49.9326 26.5402 49.9326 26.5402 49.9399 26.5329C49.9471 26.5257 49.9543 26.5113 49.9687 26.5041C50.0192 26.4392 50.0697 26.3743 50.1202 26.3093C50.1779 26.23 50.2284 26.1579 50.2789 26.0785C50.3222 26.0136 50.3582 25.9487 50.4015 25.8766C50.4159 25.8549 50.4231 25.8405 50.4375 25.8189C50.452 25.7972 50.4592 25.7756 50.4736 25.7612C50.5529 25.6169 50.6107 25.4654 50.6756 25.3212C50.7044 25.249 50.7477 25.1769 50.7766 25.112C50.8631 24.8812 50.928 24.6504 50.9641 24.434V24.4268V24.4196C50.9713 24.3042 50.9857 24.2032 50.993 24.1094Z" fill="url(#paint2_linear_562_3636)"/>
<path d="M32.722 32.1055L26.115 44.7281C25.9924 44.9661 25.8482 45.1897 25.6967 45.3988C25.5452 45.608 25.3793 45.8028 25.2062 45.9831C25.199 45.9903 25.1918 45.9975 25.1918 46.0047C25.0187 46.1851 24.8383 46.3509 24.6508 46.5024C24.6436 46.5096 24.6364 46.5096 24.6292 46.5168C24.4417 46.6683 24.2397 46.8054 24.0449 46.928C23.8502 47.0434 23.6482 47.1444 23.4535 47.2309C23.4463 47.2381 23.4318 47.2381 23.4246 47.2453C23.2731 47.3103 23.1289 47.3535 22.9774 47.3896C22.8187 47.4329 22.6672 47.4617 22.5158 47.4834C22.4436 47.4906 22.3715 47.505 22.3066 47.5122C22.0902 47.5267 21.8811 47.5194 21.6935 47.4689C21.405 47.404 21.1525 47.2742 20.9434 47.0722L24.557 50.5994C24.7662 50.8013 25.0187 50.9311 25.3072 50.9961C25.502 51.0393 25.7039 51.0466 25.9203 51.0393C25.9924 51.0321 26.0573 51.0177 26.1294 51.0105C26.2809 50.9888 26.4324 50.96 26.5911 50.9167C26.6271 50.9095 26.6632 50.9095 26.6993 50.8951C26.8003 50.8662 26.9012 50.823 27.0022 50.7869C27.0094 50.7797 27.0238 50.7797 27.0311 50.7725C27.0383 50.7652 27.0527 50.7653 27.0599 50.758C27.1248 50.7292 27.1825 50.7076 27.2474 50.6787C27.3196 50.6426 27.3917 50.6066 27.4639 50.5705C27.5288 50.5344 27.5937 50.4984 27.6586 50.4623C27.7163 50.4262 27.774 50.3902 27.8317 50.3541C27.8894 50.318 27.9399 50.282 27.9976 50.2387C28.0481 50.2026 28.1058 50.1594 28.1563 50.1233C28.1851 50.1017 28.214 50.0728 28.2428 50.0512C28.25 50.044 28.2573 50.044 28.2573 50.0368C28.2717 50.0223 28.2861 50.0151 28.3005 50.0007C28.351 49.9574 28.4015 49.9213 28.4448 49.8781C28.4953 49.8348 28.5386 49.7915 28.5891 49.7482C28.6396 49.705 28.6828 49.6545 28.7333 49.6112C28.755 49.5895 28.7766 49.5679 28.7982 49.5463C28.8054 49.5391 28.8127 49.5318 28.8199 49.5246C28.8415 49.503 28.8559 49.4886 28.8776 49.4669C28.928 49.4164 28.9713 49.3659 29.0146 49.3155C29.0651 49.2578 29.1084 49.2 29.1589 49.1423C29.2094 49.0774 29.2599 49.0125 29.3104 48.9476C29.3681 48.8683 29.4185 48.7961 29.469 48.7168C29.5411 48.6086 29.6061 48.5004 29.6638 48.3922C29.6854 48.3561 29.707 48.3201 29.7287 48.2768L36.3357 35.6542L32.722 32.1055Z" fill="url(#paint3_linear_562_3636)"/>
<path d="M46.6578 18.9655L38.5505 13.8804L39.7839 2.00793C39.8993 0.918785 39.38 0.240773 38.5649 0.053237C37.7499 -0.134299 36.6463 0.16864 35.586 1.0414L23.966 10.5192L12.4686 11.0818C10.3553 11.1827 8.02551 13.7217 8.19862 15.7269L9.12189 26.6688L0.776557 38.8947C-0.471275 40.7196 -0.139478 42.4507 1.23097 42.7608C1.54834 42.833 1.91618 42.833 2.33453 42.7392L14.5244 40.0199L20.8717 47.0165C21.0881 47.2545 21.3694 47.406 21.6795 47.4781C23.0428 47.7955 25.1201 46.6197 26.1083 44.7372L32.7153 32.1146L44.97 24.2165C47.2276 22.7667 48.1437 19.9031 46.6578 18.9655Z" fill="url(#paint4_linear_562_3636)"/>
<path opacity="0.7" d="M46.6578 18.9655L38.5505 13.8804L39.7839 2.00793C39.8993 0.918785 39.38 0.240773 38.5649 0.053237C37.7499 -0.134299 36.6463 0.16864 35.586 1.0414L23.966 10.5192L12.4686 11.0818C10.3553 11.1827 8.02551 13.7217 8.19862 15.7269L9.12189 26.6688L0.776557 38.8947C-0.471275 40.7196 -0.139478 42.4507 1.23097 42.7608C1.54834 42.833 1.91618 42.833 2.33453 42.7392L14.5244 40.0199L20.8717 47.0165C21.0881 47.2545 21.3694 47.406 21.6795 47.4781C23.0428 47.7955 25.1201 46.6197 26.1083 44.7372L32.7153 32.1146L44.97 24.2165C47.2276 22.7667 48.1437 19.9031 46.6578 18.9655ZM44.8258 23.9784L32.5061 31.9126L25.863 44.6001C24.9614 46.3168 23.2736 47.2473 22.1484 47.2473C22.0041 47.2473 21.8671 47.2328 21.7373 47.204C21.4704 47.1391 21.2395 47.0165 21.0736 46.8217L14.6181 39.7026L2.26963 42.4579C2.06767 42.5012 1.88011 42.5228 1.69979 42.5228C1.55553 42.5228 1.41848 42.5084 1.28865 42.4795C0.855871 42.3786 0.545716 42.1117 0.387032 41.7078C0.112942 41.0009 0.343781 39.9983 1.00016 39.0318L9.39594 26.7266L8.45827 15.6908C8.38615 14.8685 8.80452 13.8515 9.56909 12.9715C10.4058 12.0122 11.5165 11.3847 12.4686 11.3414L24.0598 10.7788L35.7519 1.24336C36.5237 0.615839 37.346 0.269621 38.0745 0.269621C38.2259 0.269621 38.3702 0.284045 38.5 0.312896C39.2285 0.478793 39.5964 1.08468 39.5026 1.97187L38.2548 14.0174L46.5136 19.1963C46.9968 19.4992 47.105 20.0258 47.105 20.4081C47.1122 21.4539 46.3333 23.0119 44.8258 23.9784Z" fill="url(#paint5_linear_562_3636)"/>
<defs>
<linearGradient id="paint0_linear_562_3636" x1="22.4149" y1="30.8516" x2="44.2589" y2="4.72443" gradientUnits="userSpaceOnUse">
<stop stop-color="#FFFF54"/>
<stop offset="0.0105" stop-color="#F7EE50"/>
<stop offset="0.0371" stop-color="#E6C748"/>
<stop offset="0.0658" stop-color="#D7A641"/>
<stop offset="0.0964" stop-color="#CB8C3B"/>
<stop offset="0.1297" stop-color="#C27737"/>
<stop offset="0.167" stop-color="#BB6833"/>
<stop offset="0.2116" stop-color="#B76032"/>
<stop offset="0.2826" stop-color="#B65D31"/>
<stop offset="0.2831" stop-color="#B75F31"/>
<stop offset="0.2937" stop-color="#C87E39"/>
<stop offset="0.3055" stop-color="#D7993F"/>
<stop offset="0.319" stop-color="#E3AF44"/>
<stop offset="0.3349" stop-color="#EDC048"/>
<stop offset="0.3544" stop-color="#F3CB4B"/>
<stop offset="0.3819" stop-color="#F7D24D"/>
<stop offset="0.4581" stop-color="#F8D44D"/>
<stop offset="0.477" stop-color="#EEC149"/>
<stop offset="0.5187" stop-color="#DA9D40"/>
<stop offset="0.5608" stop-color="#CA8139"/>
<stop offset="0.6028" stop-color="#BF6D35"/>
<stop offset="0.6448" stop-color="#B86132"/>
<stop offset="0.6867" stop-color="#B65D31"/>
<stop offset="0.6963" stop-color="#B86132"/>
<stop offset="0.7207" stop-color="#BC6733"/>
<stop offset="0.766" stop-color="#C97A38"/>
<stop offset="0.8235" stop-color="#D48C3C"/>
<stop offset="0.8859" stop-color="#DB963F"/>
<stop offset="0.9616" stop-color="#DD9940"/>
<stop offset="0.9762" stop-color="#E6AC44"/>
<stop offset="1" stop-color="#F8D44D"/>
</linearGradient>
<linearGradient id="paint1_linear_562_3636" x1="3.3313" y1="47.5171" x2="50.6031" y2="11.3702" gradientUnits="userSpaceOnUse">
<stop offset="0.0119" stop-color="#FFFF54"/>
<stop offset="0.0212" stop-color="#F5E24E"/>
<stop offset="0.0323" stop-color="#ECC749"/>
<stop offset="0.0444" stop-color="#E6B345"/>
<stop offset="0.058" stop-color="#E1A442"/>
<stop offset="0.0742" stop-color="#DE9C41"/>
<stop offset="0.1001" stop-color="#DD9940"/>
<stop offset="0.1431" stop-color="#D0863B"/>
<stop offset="0.2147" stop-color="#B65D31"/>
<stop offset="0.2814" stop-color="#B65D31"/>
<stop offset="0.6867" stop-color="#B65D31"/>
<stop offset="0.6963" stop-color="#B86132"/>
<stop offset="0.7207" stop-color="#BC6733"/>
<stop offset="0.7476" stop-color="#C97E39"/>
<stop offset="0.7912" stop-color="#DA9D40"/>
<stop offset="0.8369" stop-color="#E7B546"/>
<stop offset="0.885" stop-color="#F1C74A"/>
<stop offset="0.937" stop-color="#F6D14C"/>
<stop offset="1" stop-color="#F8D44D"/>
</linearGradient>
<linearGradient id="paint2_linear_562_3636" x1="8.93014" y1="60.2202" x2="54.1887" y2="17.1033" gradientUnits="userSpaceOnUse">
<stop stop-color="#FFFF54"/>
<stop offset="0.0105" stop-color="#F7EE50"/>
<stop offset="0.0371" stop-color="#E6C748"/>
<stop offset="0.0658" stop-color="#D7A641"/>
<stop offset="0.0964" stop-color="#CB8C3B"/>
<stop offset="0.1297" stop-color="#C27737"/>
<stop offset="0.167" stop-color="#BB6833"/>
<stop offset="0.2116" stop-color="#B76032"/>
<stop offset="0.2826" stop-color="#B65D31"/>
<stop offset="0.2831" stop-color="#B75F31"/>
<stop offset="0.2937" stop-color="#C87E39"/>
<stop offset="0.3055" stop-color="#D7993F"/>
<stop offset="0.319" stop-color="#E3AF44"/>
<stop offset="0.3349" stop-color="#EDC048"/>
<stop offset="0.3544" stop-color="#F3CB4B"/>
<stop offset="0.3819" stop-color="#F7D24D"/>
<stop offset="0.4581" stop-color="#F8D44D"/>
<stop offset="0.4746" stop-color="#EEC149"/>
<stop offset="0.5111" stop-color="#DA9D40"/>
<stop offset="0.5478" stop-color="#CA8139"/>
<stop offset="0.5845" stop-color="#BF6D35"/>
<stop offset="0.6212" stop-color="#B86132"/>
<stop offset="0.6578" stop-color="#B65D31"/>
<stop offset="0.7046" stop-color="#B86132"/>
<stop offset="0.8242" stop-color="#BC6733"/>
<stop offset="0.9616" stop-color="#DD9940"/>
<stop offset="0.9762" stop-color="#E6AC44"/>
<stop offset="1" stop-color="#F8D44D"/>
</linearGradient>
<linearGradient id="paint3_linear_562_3636" x1="20.2241" y1="51.2231" x2="76.9042" y2="-4.74331" gradientUnits="userSpaceOnUse">
<stop stop-color="#FFFF54"/>
<stop offset="0.0105" stop-color="#F7EE50"/>
<stop offset="0.0371" stop-color="#E6C748"/>
<stop offset="0.0658" stop-color="#D7A641"/>
<stop offset="0.0964" stop-color="#CB8C3B"/>
<stop offset="0.1297" stop-color="#C27737"/>
<stop offset="0.167" stop-color="#BB6833"/>
<stop offset="0.2116" stop-color="#B76032"/>
<stop offset="0.2826" stop-color="#B65D31"/>
<stop offset="0.2831" stop-color="#B75F31"/>
<stop offset="0.2937" stop-color="#C87E39"/>
<stop offset="0.3055" stop-color="#D7993F"/>
<stop offset="0.319" stop-color="#E3AF44"/>
<stop offset="0.3349" stop-color="#EDC048"/>
<stop offset="0.3544" stop-color="#F3CB4B"/>
<stop offset="0.3819" stop-color="#F7D24D"/>
<stop offset="0.4581" stop-color="#F8D44D"/>
<stop offset="0.477" stop-color="#EEC149"/>
<stop offset="0.5187" stop-color="#DA9D40"/>
<stop offset="0.5608" stop-color="#CA8139"/>
<stop offset="0.6028" stop-color="#BF6D35"/>
<stop offset="0.6448" stop-color="#B86132"/>
<stop offset="0.6867" stop-color="#B65D31"/>
<stop offset="0.6963" stop-color="#B86132"/>
<stop offset="0.7207" stop-color="#BC6733"/>
<stop offset="0.766" stop-color="#C97A38"/>
<stop offset="0.8235" stop-color="#D48C3C"/>
<stop offset="0.8859" stop-color="#DB963F"/>
<stop offset="0.9616" stop-color="#DD9940"/>
<stop offset="0.9762" stop-color="#E6AC44"/>
<stop offset="1" stop-color="#F8D44D"/>
</linearGradient>
<linearGradient id="paint4_linear_562_3636" x1="11.8434" y1="9.10154" x2="35.1023" y2="44.6019" gradientUnits="userSpaceOnUse">
<stop stop-color="#FFFF7C"/>
<stop offset="1" stop-color="#F1B747"/>
</linearGradient>
<linearGradient id="paint5_linear_562_3636" x1="9.69914" y1="11.4211" x2="37.8546" y2="38.9645" gradientUnits="userSpaceOnUse">
<stop offset="0.0757" stop-color="white"/>
<stop offset="1" stop-color="white" stop-opacity="0"/>
</linearGradient>
</defs>
</svg>
