<svg width="15" height="20" viewBox="0 0 15 20" fill="none" xmlns="http://www.w3.org/2000/svg">
<path d="M10 19.9994H4.28571C1.92857 19.9994 0 18.0709 0 15.7137V13.5709C0 11.2137 1.92857 9.28516 4.28571 9.28516H10C12.3571 9.28516 14.2857 11.2137 14.2857 13.5709V15.7137C14.2857 18.0709 12.3571 19.9994 10 19.9994ZM4.28571 10.7137C2.71429 10.7137 1.42857 11.9994 1.42857 13.5709V15.7137C1.42857 17.2852 2.71429 18.5709 4.28571 18.5709H10C11.5714 18.5709 12.8571 17.2852 12.8571 15.7137V13.5709C12.8571 11.9994 11.5714 10.7137 10 10.7137H4.28571Z" fill="#F2994A"/>
<path d="M7.14314 8.57143C4.78599 8.57143 2.85742 6.64286 2.85742 4.28571C2.85742 1.92857 4.78599 0 7.14314 0C9.50028 0 11.4289 1.92857 11.4289 4.28571C11.4289 6.64286 9.50028 8.57143 7.14314 8.57143ZM7.14314 1.42857C5.57171 1.42857 4.28599 2.71429 4.28599 4.28571C4.28599 5.85714 5.57171 7.14286 7.14314 7.14286C8.71456 7.14286 10.0003 5.85714 10.0003 4.28571C10.0003 2.71429 8.71456 1.42857 7.14314 1.42857Z" fill="#F2994A"/>
</svg>
