<svg width="151" height="151" viewBox="0 0 151 151" fill="none" xmlns="http://www.w3.org/2000/svg">
<path d="M112.428 145.367C83.1448 145.525 54.0873 142.582 25.431 136.555C14.0044 134.152 5.80462 124.104 5.74198 112.426C5.58453 83.1437 8.52783 54.0873 14.5543 25.4309C16.9573 14.0043 27.0055 5.80459 38.6818 5.74185C67.9646 5.58439 97.021 8.52769 125.677 14.5542C137.105 16.9572 145.305 27.0054 145.367 38.6818C145.525 67.9646 142.582 97.021 136.555 125.677C134.152 137.105 124.105 145.305 112.428 145.367Z" fill="url(#paint0_linear_562_3608)"/>
<path d="M137.504 42.8365C137.449 32.4753 130.173 23.5585 120.033 21.4257C94.6036 16.079 68.82 13.4672 42.8351 13.6058C32.4739 13.6619 23.5569 20.9385 21.4242 31.078C16.0775 56.5073 13.4657 82.2909 13.6045 108.275C13.6604 118.637 20.937 127.554 31.0767 129.686C56.5059 135.033 82.2894 137.645 108.273 137.505C118.636 137.451 127.553 130.174 129.684 120.033C135.032 94.6051 137.644 68.8215 137.504 42.8365Z" fill="url(#paint1_linear_562_3608)"/>
<path d="M5.73633 109.59C5.73449 110.536 5.73576 111.482 5.74116 112.428C5.8039 124.104 14.0037 134.153 25.4313 136.556C54.0876 142.582 83.144 145.525 112.427 145.368C124.104 145.305 134.151 137.105 136.554 125.679C136.749 124.753 136.94 123.826 137.129 122.899L5.73633 109.59Z" fill="url(#paint2_linear_562_3608)"/>
<path d="M112.427 145.366C124.105 145.303 134.152 137.103 136.555 125.676C139.191 113.145 141.236 100.538 142.691 87.868L116.248 55.4653C114.927 53.4397 113.578 53.1277 110.803 52.288C108.554 51.6071 106.238 51.0635 103.913 50.7351C96.4785 49.6844 89.0374 48.6478 81.5751 47.8198C70.6181 46.6045 59.6448 45.5295 48.592 45.6919C43.8264 45.7615 38.4732 48.9515 37.4288 53.9332C36.8928 56.4932 36.1568 59.0182 35.7463 61.5971C34.2489 70.9887 33.1799 80.4186 33.5475 89.9615C33.6706 93.1572 34.0113 94.6481 35.957 96.62L74.4761 143.822C87.0739 144.918 99.7294 145.433 112.427 145.366Z" fill="url(#paint3_linear_562_3608)"/>
<path d="M74.9219 104.945C64.0256 103.471 55.5842 102.405 47.1727 101.145C44.6059 100.76 41.9866 100.141 39.624 99.0997C35.2754 97.1851 33.0436 93.637 32.858 88.8209C32.4905 79.2779 33.5595 69.8481 35.0568 60.4565C35.4684 57.8777 36.2044 55.3526 36.7404 52.7927C37.7827 47.8108 43.137 44.6198 47.9026 44.5513C58.9563 44.3889 69.9286 45.4639 80.8867 46.6793C88.3489 47.5072 95.789 48.5438 103.224 49.5945C105.549 49.9229 107.864 50.4675 110.113 51.1474C115.069 52.6464 117.673 56.1049 118.049 61.2743C118.558 68.2686 118.17 75.2388 117.214 82.1546C116.491 87.3891 115.418 92.5798 114.343 97.7578C113.157 103.473 107.81 106.387 103.276 106.227C93.0008 105.866 82.734 105.308 74.9219 104.945Z" fill="url(#paint4_linear_562_3608)"/>
<path d="M66.2707 87.5242C73.7678 83.9061 81.0819 80.3739 88.6153 76.7375C81.9781 71.6709 75.5221 66.7427 68.8887 61.6797L66.2707 87.5242Z" fill="white"/>
<defs>
<linearGradient id="paint0_linear_562_3608" x1="45.8457" y1="0.702419" x2="124.399" y2="198.618" gradientUnits="userSpaceOnUse">
<stop stop-color="#FFFCF8"/>
<stop offset="0.1875" stop-color="#FAF8F6"/>
<stop offset="0.4041" stop-color="#ECEEF2"/>
<stop offset="0.6353" stop-color="#D5DCEA"/>
<stop offset="0.875" stop-color="#B5C4DF"/>
<stop offset="1" stop-color="#A1B5D8"/>
</linearGradient>
<linearGradient id="paint1_linear_562_3608" x1="60.679" y1="65.0851" x2="-155.716" y2="-87.2364" gradientUnits="userSpaceOnUse">
<stop stop-color="#A1B5D8" stop-opacity="0"/>
<stop offset="0.3094" stop-color="#90A2BD" stop-opacity="0.309804"/>
<stop offset="0.7554" stop-color="#7C8B9C" stop-opacity="0.756863"/>
<stop offset="1" stop-color="#748290"/>
</linearGradient>
<linearGradient id="paint2_linear_562_3608" x1="70.3025" y1="127.399" x2="68.1638" y2="148.512" gradientUnits="userSpaceOnUse">
<stop stop-color="#A1B5D8" stop-opacity="0"/>
<stop offset="0.3094" stop-color="#90A2BD" stop-opacity="0.309804"/>
<stop offset="0.7554" stop-color="#7C8B9C" stop-opacity="0.756863"/>
<stop offset="1" stop-color="#748290"/>
</linearGradient>
<linearGradient id="paint3_linear_562_3608" x1="115.396" y1="124.2" x2="31.8842" y2="21.8624" gradientUnits="userSpaceOnUse">
<stop stop-color="#A1B5D8" stop-opacity="0"/>
<stop offset="0.3094" stop-color="#90A2BD" stop-opacity="0.309804"/>
<stop offset="0.7554" stop-color="#7C8B9C" stop-opacity="0.756863"/>
<stop offset="1" stop-color="#748290"/>
</linearGradient>
<linearGradient id="paint4_linear_562_3608" x1="71.9351" y1="60.1924" x2="80.7053" y2="97.6723" gradientUnits="userSpaceOnUse">
<stop stop-color="#E52D27"/>
<stop offset="1" stop-color="#B31217"/>
</linearGradient>
</defs>
</svg>
